<svg width="64" height="64" viewBox="0 0 64 64" fill="none" xmlns="http://www.w3.org/2000/svg">
<rect width="64" height="64" rx="32" fill="#09301D"/>
<path d="M36.9776 51.1118C39.0983 49.1065 39.6651 46.5306 38.6574 43.871C38.6477 43.8467 38.6394 43.8237 38.6296 43.8002C38.6296 43.7979 38.6282 43.7964 38.6271 43.7936C38.6175 43.7678 38.6077 43.742 38.5965 43.7166C38.5965 43.7151 38.595 43.7122 38.595 43.7108C38.5857 43.6864 38.576 43.6635 38.5648 43.6405C38.5633 43.6339 38.5604 43.6281 38.5579 43.6215C38.1858 42.7347 37.641 41.9011 36.9235 41.1718L30.5334 34.6714L24.4895 28.5234C23.5438 29.4169 24.1179 32.0615 24.95 32.9119C25.8762 33.8564 26.8016 34.7986 27.7278 35.7384L27.736 35.7355L29.9373 37.967C31.6034 39.6614 33.2691 41.3564 34.9368 43.0509C37.438 45.5951 39.0681 49.2528 35.3265 51.6498C34.3573 52.2721 33.1892 52.4796 32.0634 52.4591C30.4334 52.4294 28.8145 51.7947 27.6004 50.5598C27.0795 50.0299 27.8068 49.8032 27.1195 49.1065C26.7864 48.7664 26.1459 48.7215 25.7645 49.0807C25.3826 49.4413 25.4051 50.0706 25.7396 50.4107C26.4293 51.1142 26.7293 50.4542 27.2024 50.9353C28.5227 52.2773 30.2816 52.9689 32.0541 52.9999C33.8252 53.0325 35.6089 52.405 36.9776 51.1118Z" fill="url(#paint0_linear_1317_587)"/>
<path d="M32.9141 31.1675L30.8098 29.0269L24.7665 22.8789C23.8208 23.7723 24.3959 26.4185 25.2284 27.2674C26.1533 28.2119 27.0795 29.1541 28.0044 30.0953L28.0126 30.0909L29.4949 31.5932L32.9141 31.1675Z" fill="url(#paint1_linear_1317_587)"/>
<path d="M31.7488 29.9886L31.2825 29.5156L27.8633 29.9413L28.2052 30.287L30.5138 32.6347H30.5181L33.4642 35.6325L39.5095 41.7804C40.4548 40.887 39.8797 38.2409 39.0476 37.3919C38.1223 36.4469 37.1961 35.5047 36.2698 34.5641L36.2629 34.5679L34.0603 32.3368L31.7512 29.9871L31.7488 29.9886Z" fill="url(#paint2_linear_1317_587)"/>
<path d="M26.7894 12.8908C24.6686 14.896 24.1014 17.4704 25.1096 20.1315C25.1194 20.1543 25.1276 20.1773 25.1375 20.2017C25.1375 20.2046 25.1385 20.206 25.1398 20.2089C25.1495 20.2342 25.1593 20.2601 25.1706 20.2859C25.1706 20.2873 25.1716 20.2887 25.1716 20.2912C25.1813 20.3145 25.1911 20.339 25.2008 20.362C25.2037 20.3686 25.2062 20.3739 25.2091 20.3796C25.5812 21.2662 26.1256 22.0999 26.8436 22.8307L33.2337 29.3311L39.2774 35.4791C40.2227 34.5857 39.6492 31.9409 38.817 31.0906C37.8903 30.1455 36.9656 29.2034 36.0393 28.2641L36.0311 28.2669L33.8298 26.0355C32.1621 24.341 30.498 22.646 28.8303 20.9516C26.3291 18.4053 24.6989 14.7491 28.4405 12.3511C29.4097 11.7307 30.5779 11.5224 31.7032 11.543C33.3332 11.5713 34.9526 12.2075 36.1666 13.4425C36.6875 13.9725 35.9602 14.1992 36.6476 14.896C36.9806 15.2361 37.6211 15.2809 38.0026 14.9204C38.384 14.5598 38.362 13.9305 38.0274 13.5902C37.3377 12.888 37.0373 13.5482 36.5646 13.0669C35.2443 11.7249 33.4855 11.0334 31.7144 11.0011C29.9433 10.9698 28.1581 11.5958 26.7894 12.8908Z" fill="url(#paint3_linear_1317_587)"/>
<defs>
<linearGradient id="paint0_linear_1317_587" x1="-109.049" y1="-250.442" x2="-88.3591" y2="-236.738" gradientUnits="userSpaceOnUse">
<stop stop-color="#FCD5B3"/>
<stop offset="1" stop-color="#FAB02E"/>
</linearGradient>
<linearGradient id="paint1_linear_1317_587" x1="-58.299" y1="-204.917" x2="-52.2509" y2="-198.53" gradientUnits="userSpaceOnUse">
<stop stop-color="#FCD5B3"/>
<stop offset="1" stop-color="#FAB02E"/>
</linearGradient>
<linearGradient id="paint2_linear_1317_587" x1="-51.0164" y1="-202.593" x2="-42.5041" y2="-193.603" gradientUnits="userSpaceOnUse">
<stop stop-color="#FCD5B3"/>
<stop offset="1" stop-color="#FAB02E"/>
</linearGradient>
<linearGradient id="paint3_linear_1317_587" x1="-123.696" y1="-260.503" x2="-103.005" y2="-246.799" gradientUnits="userSpaceOnUse">
<stop stop-color="#FCD5B3"/>
<stop offset="1" stop-color="#FAB02E"/>
</linearGradient>
</defs>
</svg>
