<svg width="1200" height="822" viewBox="0 0 1200 822" fill="none" xmlns="http://www.w3.org/2000/svg">
<path d="M661.363 504.364C687.535 479.144 694.531 446.748 682.094 413.301C681.974 412.995 681.871 412.706 681.751 412.411C681.751 412.381 681.734 412.363 681.72 412.327C681.6 412.002 681.48 411.678 681.342 411.359C681.342 411.341 681.324 411.304 681.324 411.286C681.209 410.979 681.089 410.691 680.951 410.402C680.932 410.318 680.897 410.246 680.867 410.162C676.274 399.01 669.55 388.527 660.695 379.355L581.833 297.603L507.245 220.285C495.572 231.521 502.658 264.781 512.927 275.476C524.358 287.354 535.778 299.204 547.209 311.023L547.311 310.986L574.477 339.05C595.039 360.36 615.596 381.676 636.177 402.987C667.046 434.983 687.162 480.984 640.987 511.13C629.025 518.955 614.609 521.565 600.716 521.307C580.599 520.934 560.62 512.951 545.636 497.421C539.208 490.757 548.183 487.906 539.702 479.144C535.59 474.867 527.686 474.301 522.98 478.819C518.267 483.354 518.543 491.269 522.672 495.546C531.183 504.393 534.886 496.093 540.725 502.143C557.019 519.02 578.727 527.719 600.601 528.108C622.459 528.518 644.471 520.626 661.363 504.364Z" fill="#FFFFE3"/>
<path d="M681.251 412.499V412.509L681.288 412.6C681.358 412.771 681.417 412.928 681.479 413.093C681.525 413.214 681.572 413.34 681.627 413.48C693.993 446.741 687.042 478.924 661.016 504.004C644.225 520.17 622.342 528.016 600.611 527.609C578.862 527.221 557.283 518.573 541.085 501.796C539.559 500.215 538.138 499.541 536.718 499.311C535.594 499.128 534.478 499.231 533.394 499.331C533.148 499.354 532.904 499.376 532.662 499.395C531.327 499.499 529.964 499.513 528.425 498.985C526.883 498.457 525.121 497.37 523.033 495.199L523.032 495.198C519.084 491.109 518.824 483.512 523.326 479.18C527.822 474.864 535.411 475.402 539.341 479.49L539.343 479.491C541.423 481.641 542.399 483.392 542.822 484.895C543.245 486.396 543.131 487.697 542.944 488.998C542.919 489.174 542.892 489.351 542.865 489.529C542.694 490.65 542.515 491.823 542.695 493.058C542.908 494.523 543.612 496.043 545.277 497.769C560.357 513.399 580.464 521.432 600.707 521.806C614.662 522.066 629.188 519.446 641.26 511.548C652.868 503.97 660.34 495.375 664.511 486.221C668.683 477.067 669.538 467.389 667.967 457.672C664.828 438.26 652.003 418.671 636.537 402.639L636.537 402.639C621.26 386.82 605.995 370.999 590.733 355.179C585.434 349.687 580.136 344.195 574.837 338.703L574.837 338.703L547.67 310.638L547.444 310.405L547.343 310.442C535.988 298.701 524.643 286.929 513.288 275.13C510.782 272.52 508.443 268.5 506.529 263.734C504.619 258.975 503.145 253.502 502.353 248.012C501.56 242.52 501.451 237.029 502.257 232.228C503.03 227.626 504.635 223.7 507.238 220.999L581.473 297.951L660.335 379.702L660.335 379.702C669.143 388.825 675.831 399.251 680.4 410.343C680.451 410.482 680.453 410.468 680.463 410.51L680.475 410.566L680.5 410.618C680.625 410.881 680.736 411.144 680.842 411.426V411.463L680.883 411.558C681.015 411.861 681.13 412.173 681.251 412.499Z" stroke="#D5D5D3" stroke-opacity="0.2"/>
<path d="M611.252 253.518L585.283 226.596L510.701 149.277C499.03 160.513 506.127 193.792 516.402 204.468C527.816 216.346 539.247 228.196 550.66 240.033L550.762 239.978L569.055 258.871L611.252 253.518Z" fill="#FFFFE3"/>
<path d="M516.762 204.122L516.762 204.121C514.255 201.516 511.914 197.499 509.999 192.734C508.086 187.976 506.611 182.502 505.816 177.011C505.022 171.518 504.912 166.025 505.716 161.222C506.487 156.619 508.092 152.693 510.694 149.991L584.923 226.943L610.2 253.147L569.241 258.343L551.121 239.63L550.856 239.357L550.756 239.412C549.554 238.166 548.352 236.919 547.15 235.673C537.023 225.17 526.886 214.657 516.762 204.122Z" stroke="#D5D5D3" stroke-opacity="0.2"/>
<path d="M596.811 238.753L591.057 232.805L548.859 238.157L553.079 242.506L581.57 272.031H581.623L617.982 309.732L692.589 387.05C704.255 375.814 697.157 342.536 686.888 331.86C675.469 319.974 664.038 308.126 652.606 296.295L652.523 296.344L625.339 268.285L596.843 238.734L596.811 238.753Z" fill="#FFFFE3"/>
<path d="M596.452 239.101L596.726 239.384L596.757 239.366L624.979 268.632L624.98 268.633L652.164 296.692L652.436 296.972L652.518 296.924C663.86 308.661 675.2 320.415 686.527 332.206L686.528 332.206C689.033 334.811 691.373 338.828 693.287 343.594C695.199 348.352 696.675 353.825 697.469 359.317C698.264 364.81 698.374 370.303 697.57 375.105C696.8 379.709 695.197 383.635 692.595 386.337L618.342 309.385L618.342 309.385L581.983 271.684L581.836 271.531H581.783L553.439 242.158L553.438 242.157L549.915 238.528L590.871 233.332L596.452 239.101Z" stroke="#D5D5D3" stroke-opacity="0.2"/>
<path d="M535.661 23.7786C509.488 48.9972 502.487 81.3742 514.93 114.84C515.05 115.128 515.152 115.417 515.274 115.723C515.274 115.76 515.287 115.777 515.303 115.814C515.423 116.132 515.543 116.457 515.682 116.782C515.682 116.8 515.695 116.818 515.695 116.848C515.814 117.142 515.935 117.45 516.056 117.739C516.091 117.822 516.123 117.889 516.158 117.96C520.751 129.111 527.47 139.596 536.331 148.786L615.193 230.538L689.78 307.856C701.446 296.62 694.368 263.358 684.098 252.665C672.66 240.78 661.248 228.931 649.817 217.118L649.715 217.154L622.549 189.09C601.968 167.78 581.43 146.464 560.849 125.154C529.981 93.1316 509.863 47.1498 556.038 16.9916C568 9.18983 582.416 6.57006 596.304 6.82834C616.421 7.18499 636.406 15.1859 651.388 30.7171C657.816 37.3836 648.841 40.2336 657.324 48.9972C661.434 53.2739 669.339 53.8384 674.046 49.3035C678.753 44.7685 678.482 36.8547 674.352 32.5756C665.841 23.7442 662.134 32.0468 656.3 25.9939C640.005 9.11599 618.299 0.420004 596.442 0.0140523C574.584 -0.379506 552.553 7.49245 535.663 23.7786H535.661Z" fill="#FFFFE3"/>
<path d="M515.774 115.645C515.786 115.679 515.798 115.712 515.811 115.744C515.918 116.03 516.023 116.308 516.141 116.585L516.182 116.679V116.719C516.211 116.792 516.241 116.865 516.27 116.938C516.352 117.144 516.434 117.347 516.516 117.545C516.547 117.616 516.574 117.672 516.606 117.737L516.614 117.753L516.621 117.77C521.19 128.864 527.875 139.295 536.691 148.439C536.691 148.439 536.691 148.439 536.691 148.439L615.553 230.19L689.786 307.142C692.388 304.44 693.992 300.515 694.765 295.913C695.571 291.112 695.462 285.62 694.67 280.128C693.878 274.638 692.405 269.165 690.495 264.406C688.582 259.64 686.243 255.621 683.737 253.011C672.374 241.203 661.036 229.432 649.68 217.696L649.579 217.732L649.356 217.502L622.19 189.438L622.189 189.438C612.017 178.905 601.859 168.375 591.702 157.845C581.303 147.065 570.904 136.285 560.489 125.502L560.489 125.501C545.023 109.457 532.198 89.8659 529.059 70.4536C527.487 60.7373 528.342 51.0595 532.514 41.9045C536.685 32.7505 544.157 24.1541 555.765 16.573L555.765 16.5728C567.837 8.69881 582.363 6.06898 596.313 6.32843C616.556 6.68742 636.669 14.7388 651.748 30.37L651.388 30.7171L651.748 30.3701C653.413 32.0966 654.117 33.617 654.33 35.0815C654.509 36.3171 654.331 37.4896 654.16 38.6108C654.133 38.7891 654.106 38.9661 654.081 39.1419C653.893 40.4431 653.78 41.7448 654.203 43.2456C654.627 44.748 655.602 46.4995 657.683 48.6495L657.685 48.6507C661.614 52.7392 669.202 53.2761 673.699 48.9434C678.196 44.611 677.942 37.0145 673.993 32.9228L673.992 32.9226C671.904 30.7561 670.142 29.672 668.6 29.1459C667.06 28.6203 665.696 28.6357 664.362 28.7413C664.12 28.7603 663.877 28.7829 663.633 28.8056C662.547 28.9062 661.43 29.0098 660.305 28.8275C658.885 28.5974 657.465 27.9227 655.94 26.3409C639.742 9.56304 618.164 0.91765 596.433 0.513971L515.774 115.645ZM515.774 115.645V115.627L515.738 115.538C515.694 115.428 515.649 115.308 515.602 115.185C515.534 115.007 515.465 114.823 515.395 114.657C503.049 81.4402 509.956 49.3349 535.863 24.2786H535.865L536.01 24.1386C552.8 7.94926 574.701 0.12274 596.433 0.513966L515.774 115.645Z" stroke="#D5D5D3" stroke-opacity="0.2"/>
<mask id="path-9-inside-1_1446_606" fill="white">
<path d="M0 732.867L0.262552 697.53L2.27583 697.88C4.66892 706.859 7.52848 713.916 10.855 719.076C17.07 728.61 24.9197 733.392 34.3451 733.392C40.9395 733.392 46.367 731.205 50.6565 726.802C54.9461 722.429 57.076 716.86 57.076 710.154C57.076 707.239 56.6089 704.265 55.6459 701.262C54.7125 698.229 53.4579 695.634 51.8529 693.477C50.1894 691.261 47.8549 689.132 44.8497 687.063C41.8437 685.022 37.2626 682.427 31.0765 679.278C25.6202 676.566 21.4763 674.233 18.5877 672.368C15.6985 670.473 13.3642 668.578 11.5845 666.653C6.65305 661.288 4.2018 654.757 4.2018 647.06C4.2018 642.336 5.16491 637.788 7.09036 633.386C8.98744 629.012 11.6722 625.251 15.1148 622.102C21.1848 616.534 28.3919 613.734 36.6789 613.734C39.3933 613.734 41.8734 613.997 44.1782 614.521C46.4545 615.076 49.5187 616.125 53.3703 617.728C56.2298 618.866 58.185 619.595 59.206 619.886C60.2569 620.207 61.1611 620.353 61.9784 620.353C63.9626 620.353 65.3049 618.924 66.0055 616.009H67.931L68.4559 649.946H66.5304C64.9837 644.523 63.671 640.354 62.5325 637.468C61.4237 634.581 60.111 631.928 58.5641 629.479C55.7627 625.018 52.6696 621.723 49.3141 619.565C45.9295 617.437 42.0482 616.358 37.6419 616.358C31.2513 616.358 26.2033 618.516 22.4684 622.86C20.9223 624.639 19.7255 626.738 18.8503 629.129C17.9452 631.52 17.508 633.911 17.508 636.331C17.508 645.865 23.6358 653.533 35.9202 659.364L47.9717 665.195C57.2804 669.598 63.9916 674.467 68.0767 679.773C72.7747 685.721 75.1091 692.631 75.1091 700.504C75.1091 705.722 74.059 710.708 71.929 715.461C68.9522 722.079 64.4876 727.211 58.5641 730.797C52.6116 734.383 45.6083 736.191 37.5252 736.191C30.1425 736.191 23.0522 734.733 16.2534 731.788C12.6934 730.214 10.5923 729.339 9.89178 729.106C9.22093 728.872 8.43268 728.756 7.58647 728.756C4.8437 728.756 2.9472 730.126 1.92549 732.867H0ZM205.603 733.392H149.372V731.467C154.45 731.001 158.01 730.156 159.994 728.902C163.525 726.686 165.305 723.595 165.305 719.659C165.305 717.327 164.517 714.207 162.912 710.271L161.453 706.685L153.254 686.508H115.553L111.089 698.317L108.929 703.594C106.361 709.863 105.077 714.79 105.077 718.376C105.077 720.505 105.545 722.458 106.507 724.295C107.441 726.103 108.696 727.59 110.3 728.727C112.547 730.272 115.407 731.176 118.909 731.467V733.392H80.5662V731.467C83.6006 731.293 86.2271 730.564 88.5318 729.252C90.8083 727.94 93.0262 725.811 95.185 722.925C97.0235 720.592 98.8037 717.56 100.554 713.887C102.276 710.213 104.581 704.702 107.412 697.355L138.693 616.708H143.595L180.887 706.568C183.689 713.361 185.906 718.202 187.569 721.117C189.204 724.033 191.013 726.22 192.939 727.707C194.31 728.727 195.886 729.514 197.637 730.068C199.416 730.593 202.072 731.059 205.603 731.467V733.392ZM151.911 683.01L133.965 638.692L116.925 683.01H151.911ZM200.73 616.708H257.164V618.633C252.903 619.041 249.81 619.682 247.943 620.615C246.163 621.461 244.733 622.772 243.653 624.58C242.573 626.388 242.019 628.342 242.019 630.441C242.019 631.928 242.165 633.24 242.457 634.377C242.749 635.543 243.595 638.021 245.025 641.841L270.353 710.65L294.922 650.296C298.337 641.812 300.058 635.602 300.058 631.724C300.058 629.566 299.708 627.525 299.037 625.659C298.337 623.764 297.432 622.307 296.294 621.286C295.156 620.324 293.901 619.624 292.53 619.245C291.159 618.836 289.378 618.633 287.219 618.633V616.708H325.212V618.633C322.089 618.924 319.347 619.682 317.041 620.936C314.736 622.19 312.518 624.114 310.417 626.68C308.987 628.517 307.499 630.995 305.924 634.173C304.348 637.322 302.218 642.22 299.475 648.838L264.459 733.392H260.782L226.817 646.039C222.381 634.552 218.792 627.292 216.137 624.201C214.415 622.248 212.314 620.849 209.834 619.974C207.354 619.07 204.319 618.633 200.73 618.633V616.708ZM363.146 676.362V706.597C363.146 712.429 363.467 716.744 364.138 719.543C364.809 722.371 366.005 724.703 367.785 726.511C369.332 728.115 371.141 729.281 373.184 730.068C375.226 730.826 377.882 731.293 381.238 731.467V733.392H326.642V731.467C329.939 731.293 332.594 730.826 334.637 730.068C336.65 729.281 338.43 728.115 339.977 726.511C341.786 724.674 343.012 722.371 343.654 719.572C344.266 716.773 344.587 712.458 344.587 706.568V643.532C344.587 637.642 344.266 633.327 343.654 630.528C343.012 627.73 341.786 625.426 339.977 623.589C338.43 621.928 336.65 620.732 334.578 620.003C332.536 619.274 329.88 618.807 326.642 618.633V616.708H367.873C374.759 616.708 379.282 616.737 381.471 616.796C390.313 617.204 397.228 618.399 402.247 620.382C407.908 622.656 412.285 626.067 415.378 630.616C418.5 635.135 420.047 640.413 420.047 646.389C420.047 655.282 416.691 662.396 409.951 667.761C407.908 669.365 405.632 670.677 403.152 671.697C400.672 672.718 397.345 673.709 393.201 674.613C396.557 676.041 399.067 677.528 400.672 679.045C401.984 680.24 403.152 681.756 404.231 683.535C405.282 685.343 406.887 688.521 409.017 693.068C414.094 703.507 417.917 711.145 420.514 715.956C423.111 720.767 425.3 724.266 427.05 726.423C428.48 728.202 429.851 729.427 431.193 730.097C432.536 730.797 434.374 731.234 436.709 731.467V733.392H408.492C407.062 730.272 406.157 728.26 405.749 727.415L399.766 713.828C396.148 705.693 392.53 698.492 388.882 692.252C385.235 686.042 381.879 681.785 378.845 679.511C377.298 678.374 375.634 677.557 373.884 677.091C372.104 676.596 369.915 676.362 367.348 676.362H363.146ZM363.146 674.438H366.414C373.533 674.438 378.641 674.03 381.704 673.242C384.768 672.426 387.657 670.794 390.342 668.286C396.382 662.571 399.387 655.486 399.387 647.06C399.387 642.541 398.512 638.313 396.761 634.348C395.011 630.382 392.588 627.117 389.495 624.551C387.073 622.598 384.214 621.257 380.887 620.499C377.561 619.712 372.804 619.333 366.677 619.333H363.146V674.438ZM602.773 733.392H546.542V731.467C551.619 731.001 555.179 730.156 557.164 728.902C560.695 726.686 562.475 723.595 562.475 719.659C562.475 717.327 561.687 714.207 560.082 710.271L558.623 706.685L550.423 686.508H512.723L508.258 698.317L506.099 703.594C503.531 709.863 502.247 714.79 502.247 718.376C502.247 720.505 502.714 722.458 503.677 724.295C504.611 726.103 505.865 727.59 507.47 728.727C509.717 730.272 512.577 731.176 516.078 731.467V733.392H477.736V731.467C480.77 731.293 483.397 730.564 485.701 729.252C487.978 727.94 490.196 725.811 492.354 722.925C494.193 720.592 495.973 717.56 497.724 713.887C499.446 710.213 501.751 704.702 504.582 697.355L535.863 616.708H540.764L578.057 706.568C580.858 713.361 583.076 718.202 584.739 721.117C586.373 724.033 588.182 726.22 590.108 727.707C591.48 728.727 593.055 729.514 594.806 730.068C596.586 730.593 599.241 731.059 602.773 731.467V733.392ZM549.081 683.01L531.135 638.692L514.094 683.01H549.081ZM597.899 616.708H654.333V618.633C650.073 619.041 646.98 619.682 645.112 620.615C643.333 621.461 641.903 622.772 640.823 624.58C639.743 626.388 639.189 628.342 639.189 630.441C639.189 631.928 639.335 633.24 639.627 634.377C639.918 635.543 640.765 638.021 642.194 641.841L667.523 710.65L692.092 650.296C695.506 641.812 697.228 635.602 697.228 631.724C697.228 629.566 696.878 627.525 696.207 625.659C695.506 623.764 694.602 622.307 693.463 621.286C692.326 620.324 691.071 619.624 689.7 619.245C688.328 618.836 686.548 618.633 684.389 618.633V616.708H722.381V618.633C719.259 618.924 716.516 619.682 714.211 620.936C711.905 622.19 709.688 624.114 707.587 626.68C706.157 628.517 704.669 630.995 703.093 634.173C701.518 637.322 699.388 642.22 696.644 648.838L661.628 733.392H657.951L623.986 646.039C619.551 634.552 615.961 627.292 613.306 624.201C611.585 622.248 609.484 620.849 607.003 619.974C604.523 619.07 601.488 618.633 597.899 618.633V616.708ZM815.641 616.708L817.042 644.961L815.116 645.048C814.386 640.237 813.16 636.272 811.439 633.124C809.717 630.004 807.237 627.204 803.998 624.814C801.313 622.831 798.133 621.402 794.485 620.586C790.838 619.741 785.965 619.333 779.924 619.333H760.315V670.764H765.48C770.703 670.764 774.613 670.414 777.24 669.744C779.895 669.044 782.025 667.849 783.689 666.07C785.294 664.437 786.49 662.484 787.278 660.239C788.036 657.994 788.678 654.67 789.204 650.296L791.129 650.384L790.779 696.13H788.854C788.328 691.728 787.569 688.2 786.577 685.517C785.585 682.835 784.185 680.561 782.404 678.695C780.683 676.858 778.465 675.517 775.693 674.671C772.951 673.825 769.448 673.388 765.218 673.388H760.315V692.952C760.315 700.737 760.52 706.422 760.928 709.98C761.307 713.537 762.096 716.511 763.234 718.901C765.189 722.983 768.165 725.986 772.162 727.91C776.16 729.806 781.442 730.768 787.978 730.768C794.806 730.768 800.525 729.894 805.136 728.173C809.746 726.423 813.482 723.741 816.399 720.097C818.442 717.647 820.105 714.848 821.389 711.729C822.644 708.609 823.841 704.469 824.92 699.337L826.846 699.425L825.796 733.392H723.723V731.467C726.992 731.293 729.647 730.826 731.661 730.097C733.703 729.368 735.512 728.173 737.117 726.511C738.897 724.674 740.123 722.342 740.764 719.543C741.436 716.715 741.757 712.399 741.757 706.568V643.532C741.757 637.701 741.436 633.386 740.764 630.558C740.123 627.73 738.897 625.426 737.117 623.589C735.57 621.928 733.791 620.732 731.748 620.003C729.735 619.274 727.05 618.807 723.723 618.633V616.708H815.641ZM854.158 632.161V706.568C854.158 712.458 854.479 716.773 855.151 719.572C855.792 722.371 857.018 724.674 858.769 726.511C860.374 728.173 862.183 729.368 864.196 730.097C866.239 730.826 868.865 731.293 872.104 731.467V733.392H832.711V731.467C835.95 731.293 838.576 730.826 840.619 730.097C842.632 729.368 844.442 728.173 846.047 726.511C847.797 724.674 849.023 722.342 849.664 719.543C850.335 716.715 850.657 712.399 850.657 706.568V643.444C850.657 637.671 850.335 633.386 849.664 630.558C849.023 627.73 847.797 625.426 846.047 623.589C844.5 621.928 842.72 620.732 840.706 620.003C838.664 619.274 836.008 618.807 832.711 618.633V616.708H865.626L935.045 705.286V643.532C935.045 637.642 934.724 633.327 934.053 630.528C933.412 627.73 932.186 625.426 930.435 623.589C928.83 621.928 927.021 620.732 925.008 620.003C922.965 619.274 920.339 618.807 917.099 618.633V616.708H956.493V618.633C950.803 618.633 946.367 620.294 943.158 623.589C941.407 625.426 940.181 627.73 939.539 630.558C938.868 633.386 938.547 637.671 938.547 643.444V733.392H934.695L854.158 632.161ZM1018.41 616.708V618.633C1015.14 618.807 1012.49 619.274 1010.42 620.003C1008.37 620.732 1006.57 621.928 1005.05 623.589C1003.15 625.514 1001.9 627.904 1001.31 630.761C1000.7 633.619 1000.41 638.517 1000.41 645.457V693.827C1000.41 701.699 1000.7 707.385 1001.31 710.883C1001.9 714.382 1003.12 717.618 1004.96 720.563C1007.7 725.083 1011.09 728.348 1015.09 730.359C1019.11 732.372 1024.19 733.392 1030.32 733.392C1036.24 733.392 1041.9 732.488 1047.3 730.71C1052.7 728.902 1057.19 726.423 1060.81 723.216C1063.03 721.234 1064.66 719.076 1065.71 716.715C1066.79 714.382 1067.49 711.437 1067.81 707.851C1068.05 705.519 1068.16 699.979 1068.16 691.261V643.503C1068.16 637.642 1067.84 633.298 1067.17 630.499C1066.53 627.73 1065.31 625.426 1063.52 623.589C1061.95 621.928 1060.14 620.732 1058.1 620.003C1056.08 619.274 1053.43 618.807 1050.19 618.633V616.708H1089.61V618.633C1086.37 618.807 1083.75 619.245 1081.7 620.003C1079.69 620.732 1077.88 621.928 1076.28 623.589C1074.53 625.397 1073.3 627.73 1072.66 630.558C1071.99 633.356 1071.67 637.671 1071.67 643.503V697.413C1071.67 705.373 1071.05 711.262 1069.83 715.053C1068.6 718.843 1066.18 722.284 1062.53 725.432C1054.22 732.605 1042.34 736.191 1026.88 736.191C1010.77 736.191 998.891 732.809 991.246 726.015C986.286 721.7 983.338 715.986 982.375 708.93C982.025 706.422 981.85 701.903 981.85 695.343V643.503C981.85 637.613 981.529 633.298 980.916 630.499C980.275 627.73 979.049 625.397 977.24 623.589C975.693 621.928 973.913 620.732 971.9 620.003C969.857 619.245 967.202 618.807 963.904 618.633V616.708H1018.41ZM1188.8 616.708L1190.2 644.961L1188.27 645.048C1187.54 640.237 1186.31 636.272 1184.59 633.124C1182.87 630.004 1180.39 627.204 1177.15 624.814C1174.47 622.831 1171.29 621.402 1167.64 620.586C1163.99 619.741 1159.12 619.333 1153.08 619.333H1133.47V670.764H1138.63C1143.86 670.764 1147.77 670.414 1150.39 669.744C1153.05 669.044 1155.18 667.849 1156.84 666.07C1158.45 664.437 1159.64 662.484 1160.43 660.239C1161.19 657.994 1161.83 654.67 1162.36 650.296L1164.28 650.384L1163.93 696.13H1162.01C1161.48 691.728 1160.72 688.2 1159.73 685.517C1158.74 682.835 1157.34 680.561 1155.56 678.695C1153.84 676.858 1151.62 675.517 1148.85 674.671C1146.1 673.825 1142.6 673.388 1138.37 673.388H1133.47V692.952C1133.47 700.737 1133.67 706.422 1134.08 709.98C1134.46 713.537 1135.25 716.511 1136.39 718.901C1138.34 722.983 1141.32 725.986 1145.32 727.91C1149.31 729.806 1154.6 730.768 1161.13 730.768C1167.96 730.768 1173.68 729.894 1178.29 728.173C1182.9 726.423 1186.64 723.741 1189.55 720.097C1191.6 717.647 1193.26 714.848 1194.54 711.729C1195.8 708.609 1196.99 704.469 1198.07 699.337L1200 699.425L1198.95 733.392H1096.88V731.467C1100.15 731.293 1102.8 730.826 1104.82 730.097C1106.86 729.368 1108.67 728.173 1110.27 726.511C1112.05 724.674 1113.28 722.342 1113.92 719.543C1114.59 716.715 1114.91 712.399 1114.91 706.568V643.532C1114.91 637.701 1114.59 633.386 1113.92 630.558C1113.28 627.73 1112.05 625.426 1110.27 623.589C1108.72 621.928 1106.95 620.732 1104.9 620.003C1102.89 619.274 1100.2 618.807 1096.88 618.633V616.708H1188.8Z"/>
</mask>
<path d="M0 732.867L0.262552 697.53L2.27583 697.88C4.66892 706.859 7.52848 713.916 10.855 719.076C17.07 728.61 24.9197 733.392 34.3451 733.392C40.9395 733.392 46.367 731.205 50.6565 726.802C54.9461 722.429 57.076 716.86 57.076 710.154C57.076 707.239 56.6089 704.265 55.6459 701.262C54.7125 698.229 53.4579 695.634 51.8529 693.477C50.1894 691.261 47.8549 689.132 44.8497 687.063C41.8437 685.022 37.2626 682.427 31.0765 679.278C25.6202 676.566 21.4763 674.233 18.5877 672.368C15.6985 670.473 13.3642 668.578 11.5845 666.653C6.65305 661.288 4.2018 654.757 4.2018 647.06C4.2018 642.336 5.16491 637.788 7.09036 633.386C8.98744 629.012 11.6722 625.251 15.1148 622.102C21.1848 616.534 28.3919 613.734 36.6789 613.734C39.3933 613.734 41.8734 613.997 44.1782 614.521C46.4545 615.076 49.5187 616.125 53.3703 617.728C56.2298 618.866 58.185 619.595 59.206 619.886C60.2569 620.207 61.1611 620.353 61.9784 620.353C63.9626 620.353 65.3049 618.924 66.0055 616.009H67.931L68.4559 649.946H66.5304C64.9837 644.523 63.671 640.354 62.5325 637.468C61.4237 634.581 60.111 631.928 58.5641 629.479C55.7627 625.018 52.6696 621.723 49.3141 619.565C45.9295 617.437 42.0482 616.358 37.6419 616.358C31.2513 616.358 26.2033 618.516 22.4684 622.86C20.9223 624.639 19.7255 626.738 18.8503 629.129C17.9452 631.52 17.508 633.911 17.508 636.331C17.508 645.865 23.6358 653.533 35.9202 659.364L47.9717 665.195C57.2804 669.598 63.9916 674.467 68.0767 679.773C72.7747 685.721 75.1091 692.631 75.1091 700.504C75.1091 705.722 74.059 710.708 71.929 715.461C68.9522 722.079 64.4876 727.211 58.5641 730.797C52.6116 734.383 45.6083 736.191 37.5252 736.191C30.1425 736.191 23.0522 734.733 16.2534 731.788C12.6934 730.214 10.5923 729.339 9.89178 729.106C9.22093 728.872 8.43268 728.756 7.58647 728.756C4.8437 728.756 2.9472 730.126 1.92549 732.867H0ZM205.603 733.392H149.372V731.467C154.45 731.001 158.01 730.156 159.994 728.902C163.525 726.686 165.305 723.595 165.305 719.659C165.305 717.327 164.517 714.207 162.912 710.271L161.453 706.685L153.254 686.508H115.553L111.089 698.317L108.929 703.594C106.361 709.863 105.077 714.79 105.077 718.376C105.077 720.505 105.545 722.458 106.507 724.295C107.441 726.103 108.696 727.59 110.3 728.727C112.547 730.272 115.407 731.176 118.909 731.467V733.392H80.5662V731.467C83.6006 731.293 86.2271 730.564 88.5318 729.252C90.8083 727.94 93.0262 725.811 95.185 722.925C97.0235 720.592 98.8037 717.56 100.554 713.887C102.276 710.213 104.581 704.702 107.412 697.355L138.693 616.708H143.595L180.887 706.568C183.689 713.361 185.906 718.202 187.569 721.117C189.204 724.033 191.013 726.22 192.939 727.707C194.31 728.727 195.886 729.514 197.637 730.068C199.416 730.593 202.072 731.059 205.603 731.467V733.392ZM151.911 683.01L133.965 638.692L116.925 683.01H151.911ZM200.73 616.708H257.164V618.633C252.903 619.041 249.81 619.682 247.943 620.615C246.163 621.461 244.733 622.772 243.653 624.58C242.573 626.388 242.019 628.342 242.019 630.441C242.019 631.928 242.165 633.24 242.457 634.377C242.749 635.543 243.595 638.021 245.025 641.841L270.353 710.65L294.922 650.296C298.337 641.812 300.058 635.602 300.058 631.724C300.058 629.566 299.708 627.525 299.037 625.659C298.337 623.764 297.432 622.307 296.294 621.286C295.156 620.324 293.901 619.624 292.53 619.245C291.159 618.836 289.378 618.633 287.219 618.633V616.708H325.212V618.633C322.089 618.924 319.347 619.682 317.041 620.936C314.736 622.19 312.518 624.114 310.417 626.68C308.987 628.517 307.499 630.995 305.924 634.173C304.348 637.322 302.218 642.22 299.475 648.838L264.459 733.392H260.782L226.817 646.039C222.381 634.552 218.792 627.292 216.137 624.201C214.415 622.248 212.314 620.849 209.834 619.974C207.354 619.07 204.319 618.633 200.73 618.633V616.708ZM363.146 676.362V706.597C363.146 712.429 363.467 716.744 364.138 719.543C364.809 722.371 366.005 724.703 367.785 726.511C369.332 728.115 371.141 729.281 373.184 730.068C375.226 730.826 377.882 731.293 381.238 731.467V733.392H326.642V731.467C329.939 731.293 332.594 730.826 334.637 730.068C336.65 729.281 338.43 728.115 339.977 726.511C341.786 724.674 343.012 722.371 343.654 719.572C344.266 716.773 344.587 712.458 344.587 706.568V643.532C344.587 637.642 344.266 633.327 343.654 630.528C343.012 627.73 341.786 625.426 339.977 623.589C338.43 621.928 336.65 620.732 334.578 620.003C332.536 619.274 329.88 618.807 326.642 618.633V616.708H367.873C374.759 616.708 379.282 616.737 381.471 616.796C390.313 617.204 397.228 618.399 402.247 620.382C407.908 622.656 412.285 626.067 415.378 630.616C418.5 635.135 420.047 640.413 420.047 646.389C420.047 655.282 416.691 662.396 409.951 667.761C407.908 669.365 405.632 670.677 403.152 671.697C400.672 672.718 397.345 673.709 393.201 674.613C396.557 676.041 399.067 677.528 400.672 679.045C401.984 680.24 403.152 681.756 404.231 683.535C405.282 685.343 406.887 688.521 409.017 693.068C414.094 703.507 417.917 711.145 420.514 715.956C423.111 720.767 425.3 724.266 427.05 726.423C428.48 728.202 429.851 729.427 431.193 730.097C432.536 730.797 434.374 731.234 436.709 731.467V733.392H408.492C407.062 730.272 406.157 728.26 405.749 727.415L399.766 713.828C396.148 705.693 392.53 698.492 388.882 692.252C385.235 686.042 381.879 681.785 378.845 679.511C377.298 678.374 375.634 677.557 373.884 677.091C372.104 676.596 369.915 676.362 367.348 676.362H363.146ZM363.146 674.438H366.414C373.533 674.438 378.641 674.03 381.704 673.242C384.768 672.426 387.657 670.794 390.342 668.286C396.382 662.571 399.387 655.486 399.387 647.06C399.387 642.541 398.512 638.313 396.761 634.348C395.011 630.382 392.588 627.117 389.495 624.551C387.073 622.598 384.214 621.257 380.887 620.499C377.561 619.712 372.804 619.333 366.677 619.333H363.146V674.438ZM602.773 733.392H546.542V731.467C551.619 731.001 555.179 730.156 557.164 728.902C560.695 726.686 562.475 723.595 562.475 719.659C562.475 717.327 561.687 714.207 560.082 710.271L558.623 706.685L550.423 686.508H512.723L508.258 698.317L506.099 703.594C503.531 709.863 502.247 714.79 502.247 718.376C502.247 720.505 502.714 722.458 503.677 724.295C504.611 726.103 505.865 727.59 507.47 728.727C509.717 730.272 512.577 731.176 516.078 731.467V733.392H477.736V731.467C480.77 731.293 483.397 730.564 485.701 729.252C487.978 727.94 490.196 725.811 492.354 722.925C494.193 720.592 495.973 717.56 497.724 713.887C499.446 710.213 501.751 704.702 504.582 697.355L535.863 616.708H540.764L578.057 706.568C580.858 713.361 583.076 718.202 584.739 721.117C586.373 724.033 588.182 726.22 590.108 727.707C591.48 728.727 593.055 729.514 594.806 730.068C596.586 730.593 599.241 731.059 602.773 731.467V733.392ZM549.081 683.01L531.135 638.692L514.094 683.01H549.081ZM597.899 616.708H654.333V618.633C650.073 619.041 646.98 619.682 645.112 620.615C643.333 621.461 641.903 622.772 640.823 624.58C639.743 626.388 639.189 628.342 639.189 630.441C639.189 631.928 639.335 633.24 639.627 634.377C639.918 635.543 640.765 638.021 642.194 641.841L667.523 710.65L692.092 650.296C695.506 641.812 697.228 635.602 697.228 631.724C697.228 629.566 696.878 627.525 696.207 625.659C695.506 623.764 694.602 622.307 693.463 621.286C692.326 620.324 691.071 619.624 689.7 619.245C688.328 618.836 686.548 618.633 684.389 618.633V616.708H722.381V618.633C719.259 618.924 716.516 619.682 714.211 620.936C711.905 622.19 709.688 624.114 707.587 626.68C706.157 628.517 704.669 630.995 703.093 634.173C701.518 637.322 699.388 642.22 696.644 648.838L661.628 733.392H657.951L623.986 646.039C619.551 634.552 615.961 627.292 613.306 624.201C611.585 622.248 609.484 620.849 607.003 619.974C604.523 619.07 601.488 618.633 597.899 618.633V616.708ZM815.641 616.708L817.042 644.961L815.116 645.048C814.386 640.237 813.16 636.272 811.439 633.124C809.717 630.004 807.237 627.204 803.998 624.814C801.313 622.831 798.133 621.402 794.485 620.586C790.838 619.741 785.965 619.333 779.924 619.333H760.315V670.764H765.48C770.703 670.764 774.613 670.414 777.24 669.744C779.895 669.044 782.025 667.849 783.689 666.07C785.294 664.437 786.49 662.484 787.278 660.239C788.036 657.994 788.678 654.67 789.204 650.296L791.129 650.384L790.779 696.13H788.854C788.328 691.728 787.569 688.2 786.577 685.517C785.585 682.835 784.185 680.561 782.404 678.695C780.683 676.858 778.465 675.517 775.693 674.671C772.951 673.825 769.448 673.388 765.218 673.388H760.315V692.952C760.315 700.737 760.52 706.422 760.928 709.98C761.307 713.537 762.096 716.511 763.234 718.901C765.189 722.983 768.165 725.986 772.162 727.91C776.16 729.806 781.442 730.768 787.978 730.768C794.806 730.768 800.525 729.894 805.136 728.173C809.746 726.423 813.482 723.741 816.399 720.097C818.442 717.647 820.105 714.848 821.389 711.729C822.644 708.609 823.841 704.469 824.92 699.337L826.846 699.425L825.796 733.392H723.723V731.467C726.992 731.293 729.647 730.826 731.661 730.097C733.703 729.368 735.512 728.173 737.117 726.511C738.897 724.674 740.123 722.342 740.764 719.543C741.436 716.715 741.757 712.399 741.757 706.568V643.532C741.757 637.701 741.436 633.386 740.764 630.558C740.123 627.73 738.897 625.426 737.117 623.589C735.57 621.928 733.791 620.732 731.748 620.003C729.735 619.274 727.05 618.807 723.723 618.633V616.708H815.641ZM854.158 632.161V706.568C854.158 712.458 854.479 716.773 855.151 719.572C855.792 722.371 857.018 724.674 858.769 726.511C860.374 728.173 862.183 729.368 864.196 730.097C866.239 730.826 868.865 731.293 872.104 731.467V733.392H832.711V731.467C835.95 731.293 838.576 730.826 840.619 730.097C842.632 729.368 844.442 728.173 846.047 726.511C847.797 724.674 849.023 722.342 849.664 719.543C850.335 716.715 850.657 712.399 850.657 706.568V643.444C850.657 637.671 850.335 633.386 849.664 630.558C849.023 627.73 847.797 625.426 846.047 623.589C844.5 621.928 842.72 620.732 840.706 620.003C838.664 619.274 836.008 618.807 832.711 618.633V616.708H865.626L935.045 705.286V643.532C935.045 637.642 934.724 633.327 934.053 630.528C933.412 627.73 932.186 625.426 930.435 623.589C928.83 621.928 927.021 620.732 925.008 620.003C922.965 619.274 920.339 618.807 917.099 618.633V616.708H956.493V618.633C950.803 618.633 946.367 620.294 943.158 623.589C941.407 625.426 940.181 627.73 939.539 630.558C938.868 633.386 938.547 637.671 938.547 643.444V733.392H934.695L854.158 632.161ZM1018.41 616.708V618.633C1015.14 618.807 1012.49 619.274 1010.42 620.003C1008.37 620.732 1006.57 621.928 1005.05 623.589C1003.15 625.514 1001.9 627.904 1001.31 630.761C1000.7 633.619 1000.41 638.517 1000.41 645.457V693.827C1000.41 701.699 1000.7 707.385 1001.31 710.883C1001.9 714.382 1003.12 717.618 1004.96 720.563C1007.7 725.083 1011.09 728.348 1015.09 730.359C1019.11 732.372 1024.19 733.392 1030.32 733.392C1036.24 733.392 1041.9 732.488 1047.3 730.71C1052.7 728.902 1057.19 726.423 1060.81 723.216C1063.03 721.234 1064.66 719.076 1065.71 716.715C1066.79 714.382 1067.49 711.437 1067.81 707.851C1068.05 705.519 1068.16 699.979 1068.16 691.261V643.503C1068.16 637.642 1067.84 633.298 1067.17 630.499C1066.53 627.73 1065.31 625.426 1063.52 623.589C1061.95 621.928 1060.14 620.732 1058.1 620.003C1056.08 619.274 1053.43 618.807 1050.19 618.633V616.708H1089.61V618.633C1086.37 618.807 1083.75 619.245 1081.7 620.003C1079.69 620.732 1077.88 621.928 1076.28 623.589C1074.53 625.397 1073.3 627.73 1072.66 630.558C1071.99 633.356 1071.67 637.671 1071.67 643.503V697.413C1071.67 705.373 1071.05 711.262 1069.83 715.053C1068.6 718.843 1066.18 722.284 1062.53 725.432C1054.22 732.605 1042.34 736.191 1026.88 736.191C1010.77 736.191 998.891 732.809 991.246 726.015C986.286 721.7 983.338 715.986 982.375 708.93C982.025 706.422 981.85 701.903 981.85 695.343V643.503C981.85 637.613 981.529 633.298 980.916 630.499C980.275 627.73 979.049 625.397 977.24 623.589C975.693 621.928 973.913 620.732 971.9 620.003C969.857 619.245 967.202 618.807 963.904 618.633V616.708H1018.41ZM1188.8 616.708L1190.2 644.961L1188.27 645.048C1187.54 640.237 1186.31 636.272 1184.59 633.124C1182.87 630.004 1180.39 627.204 1177.15 624.814C1174.47 622.831 1171.29 621.402 1167.64 620.586C1163.99 619.741 1159.12 619.333 1153.08 619.333H1133.47V670.764H1138.63C1143.86 670.764 1147.77 670.414 1150.39 669.744C1153.05 669.044 1155.18 667.849 1156.84 666.07C1158.45 664.437 1159.64 662.484 1160.43 660.239C1161.19 657.994 1161.83 654.67 1162.36 650.296L1164.28 650.384L1163.93 696.13H1162.01C1161.48 691.728 1160.72 688.2 1159.73 685.517C1158.74 682.835 1157.34 680.561 1155.56 678.695C1153.84 676.858 1151.62 675.517 1148.85 674.671C1146.1 673.825 1142.6 673.388 1138.37 673.388H1133.47V692.952C1133.47 700.737 1133.67 706.422 1134.08 709.98C1134.46 713.537 1135.25 716.511 1136.39 718.901C1138.34 722.983 1141.32 725.986 1145.32 727.91C1149.31 729.806 1154.6 730.768 1161.13 730.768C1167.96 730.768 1173.68 729.894 1178.29 728.173C1182.9 726.423 1186.64 723.741 1189.55 720.097C1191.6 717.647 1193.26 714.848 1194.54 711.729C1195.8 708.609 1196.99 704.469 1198.07 699.337L1200 699.425L1198.95 733.392H1096.88V731.467C1100.15 731.293 1102.8 730.826 1104.82 730.097C1106.86 729.368 1108.67 728.173 1110.27 726.511C1112.05 724.674 1113.28 722.342 1113.92 719.543C1114.59 716.715 1114.91 712.399 1114.91 706.568V643.532C1114.91 637.701 1114.59 633.386 1113.92 630.558C1113.28 627.73 1112.05 625.426 1110.27 623.589C1108.72 621.928 1106.95 620.732 1104.9 620.003C1102.89 619.274 1100.2 618.807 1096.88 618.633V616.708H1188.8Z" fill="#FFFFE3" stroke="#D5D5D3" stroke-opacity="0.2" stroke-width="2" mask="url(#path-9-inside-1_1446_606)"/>
<mask id="path-10-inside-2_1446_606" fill="white">
<path d="M281.853 821.053V819.496H283.43C285.007 819.496 285.879 819.125 286.045 818.384C286.222 817.642 286.306 815.158 286.306 810.942V807.133H285.275C283.504 808.875 280.518 812.675 276.307 818.56C275.481 819.7 274.869 820.525 274.452 821.053C273.199 820.941 272.244 820.886 271.576 820.886C271.215 820.886 270.101 820.941 268.219 821.053V819.496C269.072 819.385 269.981 818.912 270.955 818.087C271.92 817.263 273.645 815.261 276.112 812.072C278.709 808.718 280.564 806.438 281.668 805.242C277.809 801.711 275.194 799.441 273.812 798.431C272.421 797.421 271.372 796.92 270.649 796.92H269.777V795.363H274.906C275.453 795.891 276.594 797.105 278.357 799.023C280.963 801.85 283.43 804.278 285.767 806.326H286.306V802.861C286.306 800.024 286.186 798.329 285.934 797.763C285.693 797.198 284.914 796.92 283.597 796.92H281.631V795.363C283.922 795.474 286.203 795.529 288.476 795.529C290.804 795.529 293.085 795.474 295.321 795.363V796.92H293.364C292.074 796.92 291.314 797.198 291.073 797.754C290.822 798.301 290.702 800.006 290.702 802.861V806.326H291.221C293.095 804.844 295.581 802.407 298.651 799.023C300.394 797.124 301.535 795.91 302.073 795.363H307.23V796.92H306.33C305.7 796.92 304.652 797.448 303.186 798.505C301.721 799.552 299.105 801.795 295.33 805.223C296.842 806.91 298.715 809.191 300.941 812.072C303.492 815.381 305.218 817.42 306.107 818.18C307.007 818.949 307.88 819.385 308.733 819.496V821.053C308.714 821.053 308.334 821.025 307.592 820.979C306.609 820.914 305.913 820.886 305.514 820.886C304.828 820.886 303.873 820.941 302.648 821.053C302.157 820.441 301.489 819.542 300.635 818.365C296.081 812.017 293.113 808.273 291.731 807.133H290.702V810.942C290.702 815.122 290.785 817.596 290.943 818.356C291.11 819.116 291.982 819.496 293.549 819.496H295.154V821.053L293.688 821.025C290.729 820.932 289.005 820.886 288.522 820.886C286.287 820.951 284.07 821.006 281.853 821.053ZM361.379 795.363V796.92H359.45C357.817 796.92 356.964 797.402 356.881 798.375C356.806 799.339 356.761 802.61 356.761 808.18L356.816 814.612C356.835 816.78 356.872 818.013 356.927 818.301C356.984 818.588 357.187 818.866 357.539 819.116C357.892 819.366 358.532 819.496 359.45 819.496H361.379V821.053C358.486 820.941 355.972 820.886 353.857 820.886C352.002 820.886 349.897 820.941 347.522 821.053V819.496H349.479C350.676 819.496 351.418 819.274 351.705 818.82C351.993 818.365 352.141 816.882 352.141 814.371V802.416C352.141 800.59 352.28 799.191 352.55 798.218C351.9 799.209 351.26 800.154 350.62 801.034C349.739 802.285 348.978 803.388 348.348 804.353L342.301 813.639C339.805 817.476 337.951 820.024 336.717 821.294C336.142 821.368 334.778 821.6 332.608 821.998C332.793 817.958 332.886 814.084 332.886 810.367C332.886 802.851 332.803 798.727 332.627 798.004C332.451 797.281 331.634 796.92 330.178 796.92H328.211V795.363C330.614 795.474 332.728 795.529 334.565 795.529C336.531 795.529 339.054 795.474 342.124 795.363V796.92H340.186C339.639 796.92 339.1 797.013 338.581 797.188C338.062 797.374 337.756 797.652 337.653 798.032C337.552 798.412 337.505 799.876 337.505 802.407V814.093C337.505 815.251 337.44 816.28 337.311 817.17C337.969 816.567 339.629 814.241 342.301 810.191L346.289 804.158C347.031 803.037 348.886 800.108 351.873 795.363C353.412 795.474 354.664 795.529 355.619 795.529C356.167 795.529 358.087 795.474 361.379 795.363ZM410.909 795.363V796.92H408.98C407.347 796.92 406.494 797.402 406.411 798.356C406.326 799.32 406.291 802.591 406.291 808.18L406.319 814.584C406.337 816.771 406.374 818.013 406.429 818.301C406.485 818.588 406.69 818.866 407.051 819.116C407.413 819.366 408.053 819.496 408.98 819.496H410.91V821.053C408.015 820.941 405.502 820.886 403.388 820.886C401.514 820.886 399.409 820.941 397.053 821.053V819.496H399.01C400.298 819.496 401.059 819.209 401.301 818.643C401.551 818.069 401.672 815.733 401.672 811.609V802.555L401.644 798.625L401.672 797.188C400.206 797.013 398.045 796.92 395.197 796.92C394.112 796.92 392.647 796.975 390.819 797.087C390.819 805.14 390.578 810.488 390.087 813.138C389.604 815.779 388.593 817.828 387.053 819.274C385.514 820.719 384.039 821.442 382.629 821.442C382.054 821.442 381.35 821.312 380.524 821.062L380.607 820.006C380.663 819.487 380.681 819.153 380.681 819.014C380.681 818.921 380.663 818.652 380.607 818.198C380.57 817.93 380.543 817.531 380.524 817.012L381.136 816.715C381.878 817.642 382.778 818.106 383.844 818.106C385.495 818.106 386.673 817.086 387.397 815.047C388.121 812.999 388.482 808.542 388.482 801.665C388.482 799.71 388.39 798.431 388.213 797.828C388.028 797.226 387.23 796.92 385.829 796.92H383.863V795.363C386.599 795.474 388.881 795.529 390.718 795.529H403.378C405.196 795.529 407.7 795.474 410.909 795.363ZM432.066 808.031C432.066 805.529 432.642 803.278 433.801 801.257C434.961 799.237 436.593 797.661 438.68 796.521C440.776 795.381 443.15 794.807 445.813 794.807C449.671 794.807 452.76 795.947 455.078 798.226C457.397 800.507 458.556 803.546 458.556 807.355C458.556 811.841 457.045 815.409 454.021 818.05C451.322 820.423 448.085 821.609 444.319 821.609C440.702 821.609 437.752 820.395 435.48 817.958C433.207 815.52 432.066 812.212 432.066 808.031ZM437.187 806.113C437.187 809.848 437.957 813.036 439.487 815.687C441.017 818.337 443.215 819.663 446.1 819.663C448.289 819.663 450.06 818.828 451.415 817.17C452.76 815.501 453.437 812.981 453.437 809.589C453.437 806.864 453.038 804.491 452.24 802.49C451.443 800.497 450.394 799.033 449.087 798.125C447.788 797.207 446.322 796.753 444.718 796.753C443.28 796.753 441.991 797.115 440.841 797.837C439.691 798.56 438.847 799.533 438.3 800.747C437.558 802.388 437.187 804.185 437.187 806.113ZM512.873 795.363V796.92H510.943C509.311 796.92 508.458 797.402 508.374 798.375C508.3 799.339 508.254 802.61 508.254 808.18L508.309 814.612C508.328 816.78 508.365 818.013 508.42 818.301C508.477 818.588 508.68 818.866 509.032 819.116C509.385 819.366 510.025 819.496 510.943 819.496H512.873V821.053C509.979 820.941 507.465 820.886 505.351 820.886C503.495 820.886 501.39 820.941 499.015 821.053V819.496H500.973C502.169 819.496 502.911 819.274 503.199 818.82C503.486 818.365 503.635 816.882 503.635 814.371V802.416C503.635 800.59 503.774 799.191 504.043 798.218C503.394 799.209 502.754 800.154 502.114 801.034C501.232 802.285 500.471 803.388 499.841 804.353L493.794 813.639C491.299 817.476 489.444 820.024 488.21 821.294C487.635 821.368 486.271 821.6 484.101 821.998C484.286 817.958 484.379 814.084 484.379 810.367C484.379 802.851 484.296 798.727 484.12 798.004C483.944 797.281 483.127 796.92 481.671 796.92H479.704V795.363C482.107 795.474 484.221 795.529 486.058 795.529C488.024 795.529 490.547 795.474 493.617 795.363V796.92H491.679C491.132 796.92 490.594 797.013 490.074 797.188C489.555 797.374 489.249 797.652 489.146 798.032C489.045 798.412 488.998 799.876 488.998 802.407V814.093C488.998 815.251 488.934 816.28 488.804 817.17C489.462 816.567 491.122 814.241 493.794 810.191L497.782 804.158C498.524 803.037 500.379 800.108 503.366 795.363C504.905 795.474 506.157 795.529 507.113 795.529C507.66 795.529 509.58 795.474 512.873 795.363ZM490.436 789.654L490.222 788.866C491.855 787.903 493.117 787.05 494.025 786.299C496.975 787.921 500.518 788.876 504.664 789.163L504.803 790.016L503.041 790.859L500.509 790.914C497.921 790.914 494.563 790.497 490.436 789.654ZM570.137 807.457V810.942C570.137 815.483 570.286 818.05 570.573 818.625C570.861 819.209 571.77 819.496 573.3 819.496H574.924V821.053C574.887 821.053 574.395 821.034 573.449 821.006C570.88 820.923 569.164 820.886 568.31 820.886C568.125 820.886 565.713 820.941 561.067 821.053V819.496H562.643C564.22 819.496 565.092 819.125 565.259 818.384C565.435 817.642 565.518 815.158 565.518 810.942V802.869C565.518 800.006 565.398 798.301 565.147 797.745C564.906 797.198 564.127 796.92 562.81 796.92H560.844V795.363C563.19 795.474 565.305 795.529 567.197 795.529C570.036 795.529 572.577 795.474 574.812 795.363V796.92H572.763C572.169 796.92 571.612 797.013 571.111 797.207C570.611 797.393 570.314 797.689 570.249 798.088C570.175 798.486 570.137 800.154 570.137 803.092V805.937L570.462 806.132C572.836 804.399 575.591 802.026 578.707 799.023L582.621 795.363H588.057V796.92L587.083 796.938C586.359 796.938 585.2 797.457 583.586 798.505C581.982 799.561 579.097 801.795 574.942 805.233C577.771 807.837 581.388 811.702 585.794 816.836C587.25 818.588 588.577 819.477 589.782 819.496V821.053C589.671 821.053 589.309 821.034 588.697 821.006C587.398 820.923 586.628 820.886 586.369 820.886C585.942 820.886 584.857 820.941 583.122 821.053C578.235 814.89 574.014 810.358 570.462 807.457H570.137ZM610.272 808.031C610.272 805.529 610.847 803.278 612.007 801.257C613.166 799.237 614.798 797.661 616.885 796.521C618.981 795.381 621.356 794.807 624.018 794.807C627.876 794.807 630.965 795.947 633.283 798.226C635.602 800.507 636.762 803.546 636.762 807.355C636.762 811.841 635.25 815.409 632.226 818.05C629.527 820.423 626.29 821.609 622.524 821.609C618.907 821.609 615.957 820.395 613.685 817.958C611.413 815.52 610.272 812.212 610.272 808.031ZM615.392 806.113C615.392 809.848 616.162 813.036 617.692 815.687C619.222 818.337 621.421 819.663 624.305 819.663C626.494 819.663 628.266 818.828 629.62 817.17C630.965 815.501 631.642 812.981 631.642 809.589C631.642 806.864 631.243 804.491 630.445 802.49C629.648 800.497 628.599 799.033 627.292 798.125C625.993 797.207 624.528 796.753 622.923 796.753C621.486 796.753 620.196 797.115 619.046 797.837C617.896 798.56 617.052 799.533 616.505 800.747C615.763 802.388 615.392 804.185 615.392 806.113ZM694.64 795.363V796.92H692.71C691.078 796.92 690.225 797.402 690.141 798.356C690.057 799.32 690.021 802.684 690.021 808.449L690.049 813.231C690.067 816.409 690.113 818.152 690.197 818.449C690.28 818.745 690.549 818.995 691.013 819.199C691.477 819.394 692.042 819.496 692.711 819.496H694.64V821.053C691.755 820.941 689.242 820.886 687.099 820.886C685.244 820.886 683.138 820.941 680.782 821.053V819.496H682.703C683.927 819.496 684.678 819.246 684.966 818.736C685.253 818.226 685.401 816.039 685.401 812.156V799.793L680.774 809.487C678.955 813.268 677.258 817.179 675.691 821.219H673.91C673.224 819.301 672.389 817.253 671.415 815.084L669.708 811.201L664.644 799.163V811.859L664.672 815.965C664.69 817.355 664.736 818.18 664.811 818.421C664.876 818.671 665.108 818.903 665.488 819.144C665.868 819.375 666.462 819.496 667.278 819.496H669.207V821.053C669.152 821.053 668.641 821.034 667.686 821.016C665.497 820.923 663.967 820.886 663.095 820.886C662.427 820.886 660.702 820.941 657.91 821.053V819.496H659.858C661.24 819.496 662.037 819.162 662.232 818.495C662.427 817.818 662.529 814.538 662.529 808.643C662.529 802.258 662.437 798.708 662.26 797.995C662.075 797.281 661.277 796.92 659.858 796.92H657.91V795.363L659.375 795.409C661.267 795.493 662.26 795.529 662.325 795.529C662.344 795.529 663.095 795.502 664.579 795.437C666.082 795.353 666.832 795.307 666.851 795.307C666.907 795.307 667.185 795.326 667.695 795.363C669.281 799.459 670.766 803.083 672.138 806.253L676.145 815.492L680.774 805.52C682.563 801.646 683.667 799.163 684.103 798.078L685.216 795.363C686.431 795.474 687.516 795.529 688.462 795.529C689.195 795.529 691.254 795.474 694.64 795.363ZM733.095 819.496H735.061C736.499 819.496 737.315 819.134 737.501 818.421C737.677 817.707 737.77 815.307 737.77 811.211V803.611C737.77 803.407 737.751 802.934 737.714 802.193C737.622 800.692 737.584 799.089 737.584 797.393C736.387 797.263 734.819 797.198 732.89 797.198H728.633C727.056 797.198 725.563 797.263 724.134 797.393C724.06 799.524 724.023 801.6 724.023 803.611V811.211C724.023 814.982 724.042 817.16 724.088 817.753C724.134 818.356 724.348 818.792 724.728 819.079C725.108 819.357 725.767 819.496 726.685 819.496H728.642V821.053C725.748 820.941 723.235 820.886 721.102 820.886C719.256 820.886 717.15 820.941 714.785 821.053V819.496H716.733C718.115 819.496 718.912 819.162 719.107 818.495C719.302 817.818 719.404 814.538 719.404 808.643C719.404 802.258 719.312 798.708 719.135 797.995C718.95 797.281 718.152 796.92 716.733 796.92H714.785V795.363C717.048 795.474 719.617 795.529 722.493 795.529H739.791C741.507 795.529 743.909 795.474 747.007 795.363V796.92H745.078C743.427 796.92 742.574 797.402 742.499 798.375C742.425 799.339 742.388 802.703 742.388 808.449L742.416 813.444C742.435 816.539 742.481 818.217 742.564 818.495C742.647 818.763 742.917 818.995 743.38 819.199C743.844 819.394 744.41 819.496 745.078 819.496H747.007V821.053C744.095 820.941 741.581 820.886 739.448 820.886C737.574 820.886 735.46 820.941 733.095 821.053L733.095 819.496ZM796.538 795.363V796.92H794.609C792.976 796.92 792.123 797.402 792.039 798.356C791.955 799.32 791.919 802.591 791.919 808.18L791.947 814.584C791.965 816.771 792.002 818.013 792.058 818.301C792.113 818.588 792.318 818.866 792.679 819.116C793.041 819.366 793.681 819.496 794.609 819.496H796.538V821.053C793.644 820.941 791.13 820.886 789.016 820.886C787.142 820.886 785.037 820.941 782.681 821.053V819.496H784.638C785.927 819.496 786.688 819.209 786.929 818.643C787.179 818.069 787.3 815.733 787.3 811.609V802.555L787.272 798.625L787.3 797.188C785.834 797.013 783.673 796.92 780.825 796.92C779.741 796.92 778.275 796.975 776.448 797.087C776.448 805.14 776.206 810.488 775.715 813.138C775.233 815.779 774.222 817.828 772.682 819.274C771.142 820.719 769.668 821.442 768.258 821.442C767.683 821.442 766.978 821.312 766.152 821.062L766.236 820.006C766.291 819.487 766.309 819.153 766.309 819.014C766.309 818.921 766.291 818.652 766.236 818.198C766.199 817.93 766.171 817.531 766.152 817.012L766.764 816.715C767.507 817.642 768.406 818.106 769.473 818.106C771.124 818.106 772.302 817.086 773.025 815.047C773.749 812.999 774.11 808.542 774.11 801.665C774.11 799.71 774.018 798.431 773.841 797.828C773.656 797.226 772.858 796.92 771.457 796.92H769.491V795.363C772.227 795.474 774.509 795.529 776.346 795.529H789.006C790.824 795.529 793.329 795.474 796.538 795.363ZM822.481 807.93C822.573 811.498 823.483 814.204 825.226 816.058C826.961 817.902 829.243 818.828 832.062 818.828C833.323 818.828 834.585 818.615 835.828 818.198C837.08 817.782 838.323 817.151 839.547 816.308L840.011 816.715L839.139 818.995C837.637 819.866 836.088 820.515 834.502 820.951C832.906 821.387 831.265 821.609 829.586 821.609C825.904 821.609 822.945 820.441 820.691 818.115C818.437 815.789 817.305 812.638 817.305 808.653C817.305 805.613 817.936 802.981 819.207 800.756C820.042 799.283 821.581 797.93 823.826 796.679C826.061 795.428 828.25 794.807 830.365 794.807C833.565 794.807 836.106 795.752 837.98 797.634C839.853 799.524 840.79 802.156 840.79 805.548L840.735 807.151C839.538 807.439 838.406 807.624 837.321 807.717C835.383 807.856 832.693 807.93 829.261 807.93H822.481ZM822.536 805.928C825.347 806.039 828.445 806.095 831.839 806.095C833.194 806.095 834.511 806.03 835.781 805.9V804.38C835.781 802.786 835.466 801.276 834.826 799.848C834.427 798.958 833.732 798.226 832.739 797.634C831.737 797.05 830.587 796.753 829.28 796.753C827.248 796.753 825.625 797.494 824.41 798.986C823.195 800.469 822.574 802.786 822.536 805.928ZM870.907 807.457V810.942C870.907 815.483 871.056 818.05 871.343 818.625C871.631 819.209 872.54 819.496 874.07 819.496H875.693V821.053C875.657 821.053 875.165 821.034 874.219 821.006C871.649 820.923 869.933 820.886 869.08 820.886C868.895 820.886 866.483 820.941 861.836 821.053V819.496H863.413C864.99 819.496 865.862 819.125 866.029 818.384C866.205 817.642 866.288 815.158 866.288 810.942V802.869C866.288 800.006 866.168 798.301 865.917 797.745C865.676 797.198 864.897 796.92 863.58 796.92H861.614V795.363C863.96 795.474 866.075 795.529 867.967 795.529C870.806 795.529 873.347 795.474 875.582 795.363V796.92H873.533C872.939 796.92 872.382 797.013 871.881 797.207C871.38 797.393 871.084 797.689 871.019 798.088C870.945 798.486 870.907 800.154 870.907 803.092V805.937L871.232 806.132C873.606 804.399 876.361 802.026 879.477 799.023L883.391 795.363H888.827V796.92L887.852 796.938C887.129 796.938 885.97 797.457 884.356 798.505C882.751 799.561 879.867 801.795 875.711 805.233C878.541 807.837 882.158 811.702 886.564 816.836C888.02 818.588 889.346 819.477 890.552 819.496V821.053C890.441 821.053 890.079 821.034 889.467 821.006C888.168 820.923 887.398 820.886 887.139 820.886C886.712 820.886 885.627 820.941 883.892 821.053C879.004 814.89 874.784 810.358 871.232 807.457H870.907ZM931.122 817.216L931.855 817.865L930.742 819.607C929.509 820.274 928.238 820.775 926.93 821.109C925.631 821.442 924.296 821.609 922.933 821.609C920.271 821.609 918.007 821.099 916.152 820.089C914.297 819.079 912.86 817.605 911.839 815.687C910.828 813.769 910.318 811.488 910.318 808.847C910.318 806.512 910.708 804.483 911.487 802.749C912.266 801.016 913.361 799.663 914.761 798.69C916.171 797.717 917.924 796.753 920.03 795.808C921.513 795.14 923.174 794.807 925.001 794.807C926.401 794.807 927.598 794.918 928.609 795.15C929.61 795.372 930.696 795.78 931.855 796.354C931.41 798.745 931.168 801.146 931.132 803.537H929.406V802.175C929.406 801.016 929.24 800.201 928.905 799.718C928.571 799.237 927.802 798.764 926.606 798.291C925.409 797.819 924.101 797.587 922.692 797.587C920.243 797.587 918.36 798.338 917.033 799.83C915.707 801.322 915.048 803.556 915.048 806.521C915.048 810.349 916.031 813.407 917.989 815.705C919.742 817.79 922.014 818.828 924.787 818.828C925.873 818.828 926.939 818.69 927.997 818.421C929.045 818.143 930.084 817.744 931.122 817.216Z"/>
</mask>
<path d="M281.853 821.053V819.496H283.43C285.007 819.496 285.879 819.125 286.045 818.384C286.222 817.642 286.306 815.158 286.306 810.942V807.133H285.275C283.504 808.875 280.518 812.675 276.307 818.56C275.481 819.7 274.869 820.525 274.452 821.053C273.199 820.941 272.244 820.886 271.576 820.886C271.215 820.886 270.101 820.941 268.219 821.053V819.496C269.072 819.385 269.981 818.912 270.955 818.087C271.92 817.263 273.645 815.261 276.112 812.072C278.709 808.718 280.564 806.438 281.668 805.242C277.809 801.711 275.194 799.441 273.812 798.431C272.421 797.421 271.372 796.92 270.649 796.92H269.777V795.363H274.906C275.453 795.891 276.594 797.105 278.357 799.023C280.963 801.85 283.43 804.278 285.767 806.326H286.306V802.861C286.306 800.024 286.186 798.329 285.934 797.763C285.693 797.198 284.914 796.92 283.597 796.92H281.631V795.363C283.922 795.474 286.203 795.529 288.476 795.529C290.804 795.529 293.085 795.474 295.321 795.363V796.92H293.364C292.074 796.92 291.314 797.198 291.073 797.754C290.822 798.301 290.702 800.006 290.702 802.861V806.326H291.221C293.095 804.844 295.581 802.407 298.651 799.023C300.394 797.124 301.535 795.91 302.073 795.363H307.23V796.92H306.33C305.7 796.92 304.652 797.448 303.186 798.505C301.721 799.552 299.105 801.795 295.33 805.223C296.842 806.91 298.715 809.191 300.941 812.072C303.492 815.381 305.218 817.42 306.107 818.18C307.007 818.949 307.88 819.385 308.733 819.496V821.053C308.714 821.053 308.334 821.025 307.592 820.979C306.609 820.914 305.913 820.886 305.514 820.886C304.828 820.886 303.873 820.941 302.648 821.053C302.157 820.441 301.489 819.542 300.635 818.365C296.081 812.017 293.113 808.273 291.731 807.133H290.702V810.942C290.702 815.122 290.785 817.596 290.943 818.356C291.11 819.116 291.982 819.496 293.549 819.496H295.154V821.053L293.688 821.025C290.729 820.932 289.005 820.886 288.522 820.886C286.287 820.951 284.07 821.006 281.853 821.053ZM361.379 795.363V796.92H359.45C357.817 796.92 356.964 797.402 356.881 798.375C356.806 799.339 356.761 802.61 356.761 808.18L356.816 814.612C356.835 816.78 356.872 818.013 356.927 818.301C356.984 818.588 357.187 818.866 357.539 819.116C357.892 819.366 358.532 819.496 359.45 819.496H361.379V821.053C358.486 820.941 355.972 820.886 353.857 820.886C352.002 820.886 349.897 820.941 347.522 821.053V819.496H349.479C350.676 819.496 351.418 819.274 351.705 818.82C351.993 818.365 352.141 816.882 352.141 814.371V802.416C352.141 800.59 352.28 799.191 352.55 798.218C351.9 799.209 351.26 800.154 350.62 801.034C349.739 802.285 348.978 803.388 348.348 804.353L342.301 813.639C339.805 817.476 337.951 820.024 336.717 821.294C336.142 821.368 334.778 821.6 332.608 821.998C332.793 817.958 332.886 814.084 332.886 810.367C332.886 802.851 332.803 798.727 332.627 798.004C332.451 797.281 331.634 796.92 330.178 796.92H328.211V795.363C330.614 795.474 332.728 795.529 334.565 795.529C336.531 795.529 339.054 795.474 342.124 795.363V796.92H340.186C339.639 796.92 339.1 797.013 338.581 797.188C338.062 797.374 337.756 797.652 337.653 798.032C337.552 798.412 337.505 799.876 337.505 802.407V814.093C337.505 815.251 337.44 816.28 337.311 817.17C337.969 816.567 339.629 814.241 342.301 810.191L346.289 804.158C347.031 803.037 348.886 800.108 351.873 795.363C353.412 795.474 354.664 795.529 355.619 795.529C356.167 795.529 358.087 795.474 361.379 795.363ZM410.909 795.363V796.92H408.98C407.347 796.92 406.494 797.402 406.411 798.356C406.326 799.32 406.291 802.591 406.291 808.18L406.319 814.584C406.337 816.771 406.374 818.013 406.429 818.301C406.485 818.588 406.69 818.866 407.051 819.116C407.413 819.366 408.053 819.496 408.98 819.496H410.91V821.053C408.015 820.941 405.502 820.886 403.388 820.886C401.514 820.886 399.409 820.941 397.053 821.053V819.496H399.01C400.298 819.496 401.059 819.209 401.301 818.643C401.551 818.069 401.672 815.733 401.672 811.609V802.555L401.644 798.625L401.672 797.188C400.206 797.013 398.045 796.92 395.197 796.92C394.112 796.92 392.647 796.975 390.819 797.087C390.819 805.14 390.578 810.488 390.087 813.138C389.604 815.779 388.593 817.828 387.053 819.274C385.514 820.719 384.039 821.442 382.629 821.442C382.054 821.442 381.35 821.312 380.524 821.062L380.607 820.006C380.663 819.487 380.681 819.153 380.681 819.014C380.681 818.921 380.663 818.652 380.607 818.198C380.57 817.93 380.543 817.531 380.524 817.012L381.136 816.715C381.878 817.642 382.778 818.106 383.844 818.106C385.495 818.106 386.673 817.086 387.397 815.047C388.121 812.999 388.482 808.542 388.482 801.665C388.482 799.71 388.39 798.431 388.213 797.828C388.028 797.226 387.23 796.92 385.829 796.92H383.863V795.363C386.599 795.474 388.881 795.529 390.718 795.529H403.378C405.196 795.529 407.7 795.474 410.909 795.363ZM432.066 808.031C432.066 805.529 432.642 803.278 433.801 801.257C434.961 799.237 436.593 797.661 438.68 796.521C440.776 795.381 443.15 794.807 445.813 794.807C449.671 794.807 452.76 795.947 455.078 798.226C457.397 800.507 458.556 803.546 458.556 807.355C458.556 811.841 457.045 815.409 454.021 818.05C451.322 820.423 448.085 821.609 444.319 821.609C440.702 821.609 437.752 820.395 435.48 817.958C433.207 815.52 432.066 812.212 432.066 808.031ZM437.187 806.113C437.187 809.848 437.957 813.036 439.487 815.687C441.017 818.337 443.215 819.663 446.1 819.663C448.289 819.663 450.06 818.828 451.415 817.17C452.76 815.501 453.437 812.981 453.437 809.589C453.437 806.864 453.038 804.491 452.24 802.49C451.443 800.497 450.394 799.033 449.087 798.125C447.788 797.207 446.322 796.753 444.718 796.753C443.28 796.753 441.991 797.115 440.841 797.837C439.691 798.56 438.847 799.533 438.3 800.747C437.558 802.388 437.187 804.185 437.187 806.113ZM512.873 795.363V796.92H510.943C509.311 796.92 508.458 797.402 508.374 798.375C508.3 799.339 508.254 802.61 508.254 808.18L508.309 814.612C508.328 816.78 508.365 818.013 508.42 818.301C508.477 818.588 508.68 818.866 509.032 819.116C509.385 819.366 510.025 819.496 510.943 819.496H512.873V821.053C509.979 820.941 507.465 820.886 505.351 820.886C503.495 820.886 501.39 820.941 499.015 821.053V819.496H500.973C502.169 819.496 502.911 819.274 503.199 818.82C503.486 818.365 503.635 816.882 503.635 814.371V802.416C503.635 800.59 503.774 799.191 504.043 798.218C503.394 799.209 502.754 800.154 502.114 801.034C501.232 802.285 500.471 803.388 499.841 804.353L493.794 813.639C491.299 817.476 489.444 820.024 488.21 821.294C487.635 821.368 486.271 821.6 484.101 821.998C484.286 817.958 484.379 814.084 484.379 810.367C484.379 802.851 484.296 798.727 484.12 798.004C483.944 797.281 483.127 796.92 481.671 796.92H479.704V795.363C482.107 795.474 484.221 795.529 486.058 795.529C488.024 795.529 490.547 795.474 493.617 795.363V796.92H491.679C491.132 796.92 490.594 797.013 490.074 797.188C489.555 797.374 489.249 797.652 489.146 798.032C489.045 798.412 488.998 799.876 488.998 802.407V814.093C488.998 815.251 488.934 816.28 488.804 817.17C489.462 816.567 491.122 814.241 493.794 810.191L497.782 804.158C498.524 803.037 500.379 800.108 503.366 795.363C504.905 795.474 506.157 795.529 507.113 795.529C507.66 795.529 509.58 795.474 512.873 795.363ZM490.436 789.654L490.222 788.866C491.855 787.903 493.117 787.05 494.025 786.299C496.975 787.921 500.518 788.876 504.664 789.163L504.803 790.016L503.041 790.859L500.509 790.914C497.921 790.914 494.563 790.497 490.436 789.654ZM570.137 807.457V810.942C570.137 815.483 570.286 818.05 570.573 818.625C570.861 819.209 571.77 819.496 573.3 819.496H574.924V821.053C574.887 821.053 574.395 821.034 573.449 821.006C570.88 820.923 569.164 820.886 568.31 820.886C568.125 820.886 565.713 820.941 561.067 821.053V819.496H562.643C564.22 819.496 565.092 819.125 565.259 818.384C565.435 817.642 565.518 815.158 565.518 810.942V802.869C565.518 800.006 565.398 798.301 565.147 797.745C564.906 797.198 564.127 796.92 562.81 796.92H560.844V795.363C563.19 795.474 565.305 795.529 567.197 795.529C570.036 795.529 572.577 795.474 574.812 795.363V796.92H572.763C572.169 796.92 571.612 797.013 571.111 797.207C570.611 797.393 570.314 797.689 570.249 798.088C570.175 798.486 570.137 800.154 570.137 803.092V805.937L570.462 806.132C572.836 804.399 575.591 802.026 578.707 799.023L582.621 795.363H588.057V796.92L587.083 796.938C586.359 796.938 585.2 797.457 583.586 798.505C581.982 799.561 579.097 801.795 574.942 805.233C577.771 807.837 581.388 811.702 585.794 816.836C587.25 818.588 588.577 819.477 589.782 819.496V821.053C589.671 821.053 589.309 821.034 588.697 821.006C587.398 820.923 586.628 820.886 586.369 820.886C585.942 820.886 584.857 820.941 583.122 821.053C578.235 814.89 574.014 810.358 570.462 807.457H570.137ZM610.272 808.031C610.272 805.529 610.847 803.278 612.007 801.257C613.166 799.237 614.798 797.661 616.885 796.521C618.981 795.381 621.356 794.807 624.018 794.807C627.876 794.807 630.965 795.947 633.283 798.226C635.602 800.507 636.762 803.546 636.762 807.355C636.762 811.841 635.25 815.409 632.226 818.05C629.527 820.423 626.29 821.609 622.524 821.609C618.907 821.609 615.957 820.395 613.685 817.958C611.413 815.52 610.272 812.212 610.272 808.031ZM615.392 806.113C615.392 809.848 616.162 813.036 617.692 815.687C619.222 818.337 621.421 819.663 624.305 819.663C626.494 819.663 628.266 818.828 629.62 817.17C630.965 815.501 631.642 812.981 631.642 809.589C631.642 806.864 631.243 804.491 630.445 802.49C629.648 800.497 628.599 799.033 627.292 798.125C625.993 797.207 624.528 796.753 622.923 796.753C621.486 796.753 620.196 797.115 619.046 797.837C617.896 798.56 617.052 799.533 616.505 800.747C615.763 802.388 615.392 804.185 615.392 806.113ZM694.64 795.363V796.92H692.71C691.078 796.92 690.225 797.402 690.141 798.356C690.057 799.32 690.021 802.684 690.021 808.449L690.049 813.231C690.067 816.409 690.113 818.152 690.197 818.449C690.28 818.745 690.549 818.995 691.013 819.199C691.477 819.394 692.042 819.496 692.711 819.496H694.64V821.053C691.755 820.941 689.242 820.886 687.099 820.886C685.244 820.886 683.138 820.941 680.782 821.053V819.496H682.703C683.927 819.496 684.678 819.246 684.966 818.736C685.253 818.226 685.401 816.039 685.401 812.156V799.793L680.774 809.487C678.955 813.268 677.258 817.179 675.691 821.219H673.91C673.224 819.301 672.389 817.253 671.415 815.084L669.708 811.201L664.644 799.163V811.859L664.672 815.965C664.69 817.355 664.736 818.18 664.811 818.421C664.876 818.671 665.108 818.903 665.488 819.144C665.868 819.375 666.462 819.496 667.278 819.496H669.207V821.053C669.152 821.053 668.641 821.034 667.686 821.016C665.497 820.923 663.967 820.886 663.095 820.886C662.427 820.886 660.702 820.941 657.91 821.053V819.496H659.858C661.24 819.496 662.037 819.162 662.232 818.495C662.427 817.818 662.529 814.538 662.529 808.643C662.529 802.258 662.437 798.708 662.26 797.995C662.075 797.281 661.277 796.92 659.858 796.92H657.91V795.363L659.375 795.409C661.267 795.493 662.26 795.529 662.325 795.529C662.344 795.529 663.095 795.502 664.579 795.437C666.082 795.353 666.832 795.307 666.851 795.307C666.907 795.307 667.185 795.326 667.695 795.363C669.281 799.459 670.766 803.083 672.138 806.253L676.145 815.492L680.774 805.52C682.563 801.646 683.667 799.163 684.103 798.078L685.216 795.363C686.431 795.474 687.516 795.529 688.462 795.529C689.195 795.529 691.254 795.474 694.64 795.363ZM733.095 819.496H735.061C736.499 819.496 737.315 819.134 737.501 818.421C737.677 817.707 737.77 815.307 737.77 811.211V803.611C737.77 803.407 737.751 802.934 737.714 802.193C737.622 800.692 737.584 799.089 737.584 797.393C736.387 797.263 734.819 797.198 732.89 797.198H728.633C727.056 797.198 725.563 797.263 724.134 797.393C724.06 799.524 724.023 801.6 724.023 803.611V811.211C724.023 814.982 724.042 817.16 724.088 817.753C724.134 818.356 724.348 818.792 724.728 819.079C725.108 819.357 725.767 819.496 726.685 819.496H728.642V821.053C725.748 820.941 723.235 820.886 721.102 820.886C719.256 820.886 717.15 820.941 714.785 821.053V819.496H716.733C718.115 819.496 718.912 819.162 719.107 818.495C719.302 817.818 719.404 814.538 719.404 808.643C719.404 802.258 719.312 798.708 719.135 797.995C718.95 797.281 718.152 796.92 716.733 796.92H714.785V795.363C717.048 795.474 719.617 795.529 722.493 795.529H739.791C741.507 795.529 743.909 795.474 747.007 795.363V796.92H745.078C743.427 796.92 742.574 797.402 742.499 798.375C742.425 799.339 742.388 802.703 742.388 808.449L742.416 813.444C742.435 816.539 742.481 818.217 742.564 818.495C742.647 818.763 742.917 818.995 743.38 819.199C743.844 819.394 744.41 819.496 745.078 819.496H747.007V821.053C744.095 820.941 741.581 820.886 739.448 820.886C737.574 820.886 735.46 820.941 733.095 821.053L733.095 819.496ZM796.538 795.363V796.92H794.609C792.976 796.92 792.123 797.402 792.039 798.356C791.955 799.32 791.919 802.591 791.919 808.18L791.947 814.584C791.965 816.771 792.002 818.013 792.058 818.301C792.113 818.588 792.318 818.866 792.679 819.116C793.041 819.366 793.681 819.496 794.609 819.496H796.538V821.053C793.644 820.941 791.13 820.886 789.016 820.886C787.142 820.886 785.037 820.941 782.681 821.053V819.496H784.638C785.927 819.496 786.688 819.209 786.929 818.643C787.179 818.069 787.3 815.733 787.3 811.609V802.555L787.272 798.625L787.3 797.188C785.834 797.013 783.673 796.92 780.825 796.92C779.741 796.92 778.275 796.975 776.448 797.087C776.448 805.14 776.206 810.488 775.715 813.138C775.233 815.779 774.222 817.828 772.682 819.274C771.142 820.719 769.668 821.442 768.258 821.442C767.683 821.442 766.978 821.312 766.152 821.062L766.236 820.006C766.291 819.487 766.309 819.153 766.309 819.014C766.309 818.921 766.291 818.652 766.236 818.198C766.199 817.93 766.171 817.531 766.152 817.012L766.764 816.715C767.507 817.642 768.406 818.106 769.473 818.106C771.124 818.106 772.302 817.086 773.025 815.047C773.749 812.999 774.11 808.542 774.11 801.665C774.11 799.71 774.018 798.431 773.841 797.828C773.656 797.226 772.858 796.92 771.457 796.92H769.491V795.363C772.227 795.474 774.509 795.529 776.346 795.529H789.006C790.824 795.529 793.329 795.474 796.538 795.363ZM822.481 807.93C822.573 811.498 823.483 814.204 825.226 816.058C826.961 817.902 829.243 818.828 832.062 818.828C833.323 818.828 834.585 818.615 835.828 818.198C837.08 817.782 838.323 817.151 839.547 816.308L840.011 816.715L839.139 818.995C837.637 819.866 836.088 820.515 834.502 820.951C832.906 821.387 831.265 821.609 829.586 821.609C825.904 821.609 822.945 820.441 820.691 818.115C818.437 815.789 817.305 812.638 817.305 808.653C817.305 805.613 817.936 802.981 819.207 800.756C820.042 799.283 821.581 797.93 823.826 796.679C826.061 795.428 828.25 794.807 830.365 794.807C833.565 794.807 836.106 795.752 837.98 797.634C839.853 799.524 840.79 802.156 840.79 805.548L840.735 807.151C839.538 807.439 838.406 807.624 837.321 807.717C835.383 807.856 832.693 807.93 829.261 807.93H822.481ZM822.536 805.928C825.347 806.039 828.445 806.095 831.839 806.095C833.194 806.095 834.511 806.03 835.781 805.9V804.38C835.781 802.786 835.466 801.276 834.826 799.848C834.427 798.958 833.732 798.226 832.739 797.634C831.737 797.05 830.587 796.753 829.28 796.753C827.248 796.753 825.625 797.494 824.41 798.986C823.195 800.469 822.574 802.786 822.536 805.928ZM870.907 807.457V810.942C870.907 815.483 871.056 818.05 871.343 818.625C871.631 819.209 872.54 819.496 874.07 819.496H875.693V821.053C875.657 821.053 875.165 821.034 874.219 821.006C871.649 820.923 869.933 820.886 869.08 820.886C868.895 820.886 866.483 820.941 861.836 821.053V819.496H863.413C864.99 819.496 865.862 819.125 866.029 818.384C866.205 817.642 866.288 815.158 866.288 810.942V802.869C866.288 800.006 866.168 798.301 865.917 797.745C865.676 797.198 864.897 796.92 863.58 796.92H861.614V795.363C863.96 795.474 866.075 795.529 867.967 795.529C870.806 795.529 873.347 795.474 875.582 795.363V796.92H873.533C872.939 796.92 872.382 797.013 871.881 797.207C871.38 797.393 871.084 797.689 871.019 798.088C870.945 798.486 870.907 800.154 870.907 803.092V805.937L871.232 806.132C873.606 804.399 876.361 802.026 879.477 799.023L883.391 795.363H888.827V796.92L887.852 796.938C887.129 796.938 885.97 797.457 884.356 798.505C882.751 799.561 879.867 801.795 875.711 805.233C878.541 807.837 882.158 811.702 886.564 816.836C888.02 818.588 889.346 819.477 890.552 819.496V821.053C890.441 821.053 890.079 821.034 889.467 821.006C888.168 820.923 887.398 820.886 887.139 820.886C886.712 820.886 885.627 820.941 883.892 821.053C879.004 814.89 874.784 810.358 871.232 807.457H870.907ZM931.122 817.216L931.855 817.865L930.742 819.607C929.509 820.274 928.238 820.775 926.93 821.109C925.631 821.442 924.296 821.609 922.933 821.609C920.271 821.609 918.007 821.099 916.152 820.089C914.297 819.079 912.86 817.605 911.839 815.687C910.828 813.769 910.318 811.488 910.318 808.847C910.318 806.512 910.708 804.483 911.487 802.749C912.266 801.016 913.361 799.663 914.761 798.69C916.171 797.717 917.924 796.753 920.03 795.808C921.513 795.14 923.174 794.807 925.001 794.807C926.401 794.807 927.598 794.918 928.609 795.15C929.61 795.372 930.696 795.78 931.855 796.354C931.41 798.745 931.168 801.146 931.132 803.537H929.406V802.175C929.406 801.016 929.24 800.201 928.905 799.718C928.571 799.237 927.802 798.764 926.606 798.291C925.409 797.819 924.101 797.587 922.692 797.587C920.243 797.587 918.36 798.338 917.033 799.83C915.707 801.322 915.048 803.556 915.048 806.521C915.048 810.349 916.031 813.407 917.989 815.705C919.742 817.79 922.014 818.828 924.787 818.828C925.873 818.828 926.939 818.69 927.997 818.421C929.045 818.143 930.084 817.744 931.122 817.216Z" fill="#FFFFE3" stroke="#D5D5D3" stroke-opacity="0.2" stroke-width="2" mask="url(#path-10-inside-2_1446_606)"/>
</svg>
