<svg width="590" height="404" viewBox="0 0 590 404" fill="none" xmlns="http://www.w3.org/2000/svg">
<path d="M325.171 247.892C338.039 235.496 341.479 219.575 335.364 203.136C335.305 202.985 335.254 202.843 335.195 202.698C335.195 202.684 335.187 202.675 335.18 202.657C335.121 202.498 335.062 202.338 334.994 202.181C334.994 202.172 334.985 202.154 334.985 202.146C334.929 201.995 334.87 201.853 334.802 201.711C334.793 201.67 334.775 201.634 334.76 201.593C332.502 196.112 329.196 190.96 324.843 186.452L286.069 146.272L249.396 108.271C243.657 113.794 247.141 130.141 252.19 135.397C257.81 141.235 263.425 147.059 269.045 152.868L269.095 152.849L282.452 166.643C292.562 177.116 302.669 187.592 312.788 198.066C327.965 213.792 337.856 236.401 315.153 251.217C309.272 255.063 302.184 256.346 295.353 256.219C285.462 256.036 275.639 252.112 268.272 244.48C265.112 241.204 269.524 239.803 265.354 235.496C263.333 233.395 259.447 233.117 257.133 235.337C254.815 237.566 254.951 241.456 256.981 243.558C261.166 247.906 262.987 243.827 265.857 246.801C273.869 255.095 284.542 259.37 295.297 259.562C306.043 259.763 316.866 255.885 325.171 247.892Z" fill="#E5BD4C"/>
<path d="M300.535 124.6L287.767 111.368L251.097 73.3672C245.359 78.8895 248.848 95.2454 253.9 100.493C259.512 106.331 265.132 112.154 270.744 117.972L270.794 117.945L279.788 127.231L300.535 124.6Z" fill="#E5BD4C"/>
<path d="M293.432 117.345L290.602 114.422L269.855 117.053L271.93 119.19L285.938 133.701H285.964L303.841 152.23L340.522 190.231C346.258 184.709 342.768 168.353 337.72 163.106C332.105 157.264 326.485 151.441 320.864 145.627L320.823 145.65L307.458 131.86L293.447 117.336L293.432 117.345Z" fill="#E5BD4C"/>
<path d="M263.368 11.6868C250.499 24.0814 247.057 39.9942 253.175 56.442C253.234 56.5835 253.284 56.7255 253.344 56.876C253.344 56.8942 253.35 56.9026 253.358 56.9208C253.417 57.0773 253.476 57.2369 253.545 57.3965C253.545 57.4056 253.551 57.414 253.551 57.4292C253.609 57.5737 253.669 57.7247 253.728 57.8668C253.746 57.9079 253.761 57.9406 253.779 57.9756C256.037 63.4562 259.34 68.6091 263.697 73.1261L302.471 113.306L339.143 151.306C344.879 145.784 341.398 129.437 336.349 124.181C330.726 118.34 325.115 112.516 319.494 106.71L319.444 106.728L306.087 92.9351C295.968 82.4611 285.871 71.9848 275.752 61.5115C260.575 45.7728 250.683 23.1734 273.387 8.35113C279.268 4.51666 286.356 3.22908 293.184 3.35603C303.075 3.53131 312.901 7.46363 320.267 15.097C323.427 18.3735 319.015 19.7742 323.185 24.0814C325.206 26.1833 329.092 26.4608 331.407 24.2319C333.721 22.003 333.588 18.1135 331.558 16.0104C327.373 11.6699 325.55 15.7505 322.682 12.7756C314.67 4.48037 303.998 0.206426 293.252 0.00690649C282.505 -0.186521 271.673 3.68242 263.369 11.6868H263.368Z" fill="#E5BD4C"/>
<path d="M0 360.197L0.129088 342.829L1.11895 343.001C2.29555 347.414 3.7015 350.882 5.33705 353.419C8.39274 358.104 12.2522 360.454 16.8863 360.454C20.1286 360.454 22.7971 359.38 24.9061 357.216C27.0152 355.066 28.0624 352.329 28.0624 349.033C28.0624 347.601 27.8327 346.139 27.3593 344.663C26.9003 343.172 26.2835 341.897 25.4944 340.837C24.6765 339.748 23.5287 338.701 22.0511 337.684C20.5732 336.681 18.3208 335.406 15.2793 333.858C12.5966 332.525 10.5592 331.379 9.13897 330.462C7.71843 329.531 6.57071 328.599 5.69572 327.653C3.27108 325.017 2.06589 321.807 2.06589 318.024C2.06589 315.702 2.53941 313.467 3.48609 311.303C4.41883 309.153 5.73881 307.305 7.43144 305.757C10.4158 303.02 13.9593 301.645 18.0338 301.645C19.3684 301.645 20.5877 301.773 21.721 302.031C22.8401 302.304 24.3467 302.819 26.2404 303.608C27.6463 304.167 28.6076 304.525 29.1096 304.668C29.6263 304.826 30.0709 304.897 30.4727 304.897C31.4483 304.897 32.1083 304.195 32.4527 302.762H33.3994L33.6575 319.442H32.7108C31.9503 316.777 31.3049 314.728 30.7452 313.309C30.2 311.89 29.5546 310.586 28.794 309.383C27.4166 307.19 25.8959 305.571 24.2461 304.51C22.582 303.464 20.6737 302.934 18.5073 302.934C15.3652 302.934 12.8833 303.995 11.0469 306.13C10.2868 307.004 9.69839 308.036 9.26806 309.211C8.82307 310.386 8.60812 311.561 8.60812 312.75C8.60812 317.436 11.6209 321.205 17.6608 324.071L23.5861 326.937C28.1629 329.101 31.4625 331.494 33.4711 334.102C35.7809 337.025 36.9286 340.421 36.9286 344.29C36.9286 346.855 36.4123 349.306 35.3651 351.641C33.9015 354.894 31.7064 357.417 28.794 359.179C25.8674 360.942 22.4241 361.83 18.4499 361.83C14.8201 361.83 11.334 361.114 7.99127 359.666C6.2409 358.892 5.20789 358.463 4.86346 358.348C4.53362 358.233 4.14607 358.176 3.73002 358.176C2.38149 358.176 1.44904 358.849 0.9467 360.197H0ZM101.088 360.454H73.4415V359.508C75.9378 359.279 77.6881 358.864 78.6637 358.248C80.3998 357.159 81.275 355.639 81.275 353.705C81.275 352.559 80.8875 351.025 80.0984 349.091L79.3811 347.328L75.3497 337.412H56.8136L54.6186 343.215L53.5568 345.809C52.2942 348.89 51.6631 351.312 51.6631 353.075C51.6631 354.121 51.8927 355.081 52.3659 355.983C52.8251 356.872 53.442 357.603 54.2311 358.162C55.3357 358.921 56.7419 359.365 58.4634 359.508V360.454H39.6117V359.508C41.1036 359.423 42.395 359.064 43.5281 358.419C44.6474 357.775 45.7379 356.728 46.7993 355.31C47.7032 354.164 48.5785 352.673 49.4392 350.868C50.2857 349.062 51.4192 346.354 52.8109 342.743L68.1907 303.106H70.6008L88.9361 347.271C90.3136 350.61 91.4039 352.989 92.2216 354.421C93.0252 355.855 93.9145 356.929 94.8615 357.66C95.5358 358.162 96.3106 358.549 97.1713 358.821C98.0463 359.079 99.352 359.308 101.088 359.508V360.454ZM74.6898 335.692L65.8663 313.911L57.4879 335.692H74.6898ZM98.6921 303.106H126.439V304.052C124.344 304.253 122.823 304.568 121.905 305.026C121.03 305.442 120.327 306.087 119.796 306.975C119.265 307.864 118.993 308.824 118.993 309.856C118.993 310.586 119.065 311.231 119.208 311.79C119.352 312.363 119.768 313.581 120.47 315.458L132.924 349.277L145.004 319.614C146.682 315.444 147.529 312.392 147.529 310.486C147.529 309.426 147.356 308.423 147.027 307.505C146.682 306.574 146.238 305.858 145.678 305.356C145.118 304.883 144.502 304.539 143.827 304.353C143.153 304.152 142.278 304.052 141.216 304.052V303.106H159.896V304.052C158.361 304.195 157.012 304.568 155.879 305.184C154.745 305.8 153.655 306.746 152.622 308.007C151.919 308.91 151.187 310.128 150.413 311.69C149.638 313.237 148.59 315.645 147.242 318.898L130.026 360.454H128.218L111.518 317.522C109.337 311.876 107.573 308.308 106.267 306.789C105.421 305.829 104.388 305.141 103.168 304.711C101.949 304.267 100.457 304.052 98.6921 304.052V303.106ZM178.547 332.425V347.285C178.547 350.151 178.705 352.272 179.034 353.648C179.365 355.038 179.953 356.184 180.828 357.073C181.588 357.861 182.478 358.434 183.482 358.821C184.486 359.193 185.792 359.423 187.442 359.508V360.454H160.599V359.508C162.22 359.423 163.525 359.193 164.53 358.821C165.52 358.434 166.395 357.861 167.155 357.073C168.045 356.17 168.647 355.038 168.963 353.662C169.264 352.286 169.422 350.166 169.422 347.271V316.29C169.422 313.395 169.264 311.274 168.963 309.898C168.647 308.523 168.045 307.391 167.155 306.488C166.395 305.671 165.52 305.084 164.501 304.725C163.497 304.367 162.191 304.138 160.599 304.052V303.106H180.871C184.257 303.106 186.48 303.12 187.557 303.149C191.904 303.35 195.304 303.937 197.771 304.912C200.555 306.03 202.707 307.706 204.228 309.942C205.763 312.163 206.523 314.756 206.523 317.694C206.523 322.065 204.873 325.561 201.559 328.198C200.555 328.986 199.436 329.631 198.216 330.132C196.997 330.634 195.361 331.121 193.324 331.566C194.974 332.267 196.208 332.998 196.997 333.744C197.642 334.331 198.216 335.076 198.747 335.95C199.263 336.839 200.053 338.401 201.1 340.636C203.596 345.766 205.476 349.521 206.753 351.885C208.029 354.249 209.106 355.969 209.966 357.029C210.669 357.904 211.343 358.506 212.003 358.835C212.663 359.179 213.567 359.394 214.715 359.508V360.454H200.842C200.139 358.921 199.694 357.932 199.493 357.517L196.552 350.839C194.773 346.841 192.994 343.302 191.201 340.235C189.407 337.183 187.757 335.091 186.265 333.973C185.505 333.414 184.687 333.013 183.826 332.784C182.951 332.54 181.875 332.425 180.613 332.425H178.547ZM178.547 331.479H180.154C183.654 331.479 186.165 331.279 187.671 330.892C189.178 330.491 190.598 329.688 191.918 328.456C194.888 325.647 196.365 322.165 196.365 318.024C196.365 315.802 195.935 313.725 195.074 311.776C194.214 309.827 193.023 308.222 191.502 306.961C190.311 306.001 188.905 305.342 187.27 304.969C185.634 304.582 183.295 304.396 180.283 304.396H178.547V331.479ZM296.363 360.454H268.716V359.508C271.213 359.279 272.963 358.864 273.939 358.248C275.675 357.159 276.55 355.639 276.55 353.705C276.55 352.559 276.163 351.025 275.374 349.091L274.656 347.328L270.625 337.412H252.089L249.894 343.215L248.832 345.809C247.569 348.89 246.938 351.312 246.938 353.075C246.938 354.121 247.168 355.081 247.641 355.983C248.1 356.872 248.717 357.603 249.506 358.162C250.611 358.921 252.017 359.365 253.738 359.508V360.454H234.887V359.508C236.379 359.423 237.67 359.064 238.803 358.419C239.922 357.775 241.013 356.728 242.074 355.31C242.978 354.164 243.854 352.673 244.714 350.868C245.561 349.062 246.694 346.354 248.086 342.743L263.466 303.106H265.876L284.211 347.271C285.589 350.61 286.679 352.989 287.497 354.421C288.3 355.855 289.19 356.929 290.137 357.66C290.811 358.162 291.586 358.549 292.446 358.821C293.321 359.079 294.627 359.308 296.363 359.508V360.454ZM269.965 335.692L261.141 313.911L252.763 335.692H269.965ZM293.967 303.106H321.714V304.052C319.619 304.253 318.098 304.568 317.18 305.026C316.305 305.442 315.602 306.087 315.071 306.975C314.54 307.864 314.268 308.824 314.268 309.856C314.268 310.586 314.339 311.231 314.483 311.79C314.626 312.363 315.043 313.581 315.745 315.458L328.199 349.277L340.279 319.614C341.957 315.444 342.804 312.392 342.804 310.486C342.804 309.426 342.632 308.423 342.302 307.505C341.957 306.574 341.513 305.858 340.953 305.356C340.393 304.883 339.777 304.539 339.102 304.353C338.428 304.152 337.553 304.052 336.491 304.052V303.106H355.171V304.052C353.636 304.195 352.287 304.568 351.154 305.184C350.02 305.8 348.93 306.746 347.897 308.007C347.194 308.91 346.462 310.128 345.688 311.69C344.913 313.237 343.866 315.645 342.517 318.898L325.301 360.454H323.493L306.793 317.522C304.613 311.876 302.848 308.308 301.542 306.789C300.696 305.829 299.663 305.141 298.443 304.711C297.224 304.267 295.732 304.052 293.967 304.052V303.106ZM401.023 303.106L401.712 316.992L400.765 317.035C400.406 314.67 399.804 312.721 398.957 311.174C398.111 309.641 396.892 308.265 395.299 307.09C393.979 306.115 392.415 305.413 390.622 305.012C388.829 304.597 386.433 304.396 383.463 304.396H373.822V329.674H376.361C378.929 329.674 380.852 329.502 382.143 329.172C383.448 328.828 384.496 328.241 385.314 327.367C386.103 326.564 386.691 325.604 387.078 324.501C387.451 323.397 387.767 321.764 388.025 319.614L388.972 319.657L388.8 342.141H387.853C387.595 339.977 387.222 338.243 386.734 336.925C386.246 335.606 385.557 334.489 384.682 333.572C383.836 332.669 382.745 332.01 381.383 331.594C380.034 331.178 378.312 330.964 376.232 330.964H373.822V340.579C373.822 344.405 373.922 347.199 374.123 348.948C374.309 350.696 374.697 352.157 375.257 353.332C376.218 355.338 377.681 356.815 379.646 357.76C381.612 358.692 384.209 359.165 387.423 359.165C390.78 359.165 393.592 358.735 395.859 357.889C398.125 357.029 399.962 355.711 401.396 353.92C402.401 352.716 403.218 351.34 403.85 349.807C404.467 348.274 405.055 346.239 405.585 343.717L406.533 343.76L406.016 360.454H355.831V359.508C357.438 359.423 358.743 359.193 359.733 358.835C360.737 358.477 361.627 357.889 362.416 357.073C363.291 356.17 363.894 355.023 364.209 353.648C364.539 352.258 364.697 350.137 364.697 347.271V316.29C364.697 313.424 364.539 311.303 364.209 309.913C363.894 308.523 363.291 307.391 362.416 306.488C361.655 305.671 360.78 305.084 359.776 304.725C358.786 304.367 357.466 304.138 355.831 304.052V303.106H401.023ZM419.961 310.701V347.271C419.961 350.166 420.119 352.286 420.449 353.662C420.765 355.038 421.367 356.17 422.228 357.073C423.017 357.889 423.907 358.477 424.896 358.835C425.901 359.193 427.192 359.423 428.784 359.508V360.454H409.416V359.508C411.009 359.423 412.3 359.193 413.304 358.835C414.294 358.477 415.184 357.889 415.973 357.073C416.834 356.17 417.436 355.023 417.752 353.648C418.082 352.258 418.24 350.137 418.24 347.271V316.247C418.24 313.409 418.082 311.303 417.752 309.913C417.436 308.523 416.834 307.391 415.973 306.488C415.212 305.671 414.337 305.084 413.347 304.725C412.343 304.367 411.037 304.138 409.416 304.052V303.106H425.6L459.731 346.641V316.29C459.731 313.395 459.573 311.274 459.243 309.898C458.927 308.523 458.325 307.391 457.464 306.488C456.675 305.671 455.785 305.084 454.796 304.725C453.791 304.367 452.5 304.138 450.907 304.052V303.106H470.276V304.052C467.478 304.052 465.297 304.869 463.719 306.488C462.858 307.391 462.256 308.523 461.94 309.913C461.61 311.303 461.452 313.409 461.452 316.247V360.454H459.558L419.961 310.701ZM500.719 303.106V304.052C499.113 304.138 497.807 304.367 496.788 304.725C495.784 305.084 494.895 305.671 494.149 306.488C493.216 307.434 492.599 308.609 492.312 310.013C492.011 311.418 491.867 313.825 491.867 317.236V341.009C491.867 344.878 492.011 347.672 492.312 349.392C492.599 351.111 493.202 352.702 494.106 354.149C495.454 356.371 497.119 357.975 499.084 358.964C501.064 359.953 503.56 360.454 506.573 360.454C509.485 360.454 512.269 360.01 514.923 359.136C517.577 358.248 519.786 357.029 521.565 355.453C522.656 354.479 523.459 353.419 523.976 352.258C524.507 351.111 524.851 349.664 525.009 347.902C525.124 346.755 525.181 344.033 525.181 339.748V316.275C525.181 313.395 525.023 311.26 524.693 309.884C524.378 308.523 523.775 307.391 522.9 306.488C522.125 305.671 521.236 305.084 520.231 304.725C519.241 304.367 517.936 304.138 516.343 304.052V303.106H535.726V304.052C534.134 304.138 532.842 304.353 531.838 304.725C530.848 305.084 529.958 305.671 529.169 306.488C528.309 307.377 527.706 308.523 527.391 309.913C527.06 311.288 526.903 313.409 526.903 316.275V342.771C526.903 346.683 526.601 349.578 525.999 351.441C525.396 353.304 524.205 354.995 522.412 356.542C518.323 360.068 512.484 361.83 504.88 361.83C496.961 361.83 491.122 360.168 487.363 356.829C484.924 354.708 483.475 351.9 483.001 348.432C482.829 347.199 482.743 344.978 482.743 341.754V316.275C482.743 313.381 482.585 311.26 482.284 309.884C481.968 308.523 481.366 307.377 480.476 306.488C479.716 305.671 478.841 305.084 477.851 304.725C476.846 304.353 475.541 304.138 473.92 304.052V303.106H500.719ZM584.491 303.106L585.18 316.992L584.233 317.035C583.874 314.67 583.271 312.721 582.425 311.174C581.579 309.641 580.359 308.265 578.767 307.09C577.447 306.115 575.883 305.413 574.089 305.012C572.296 304.597 569.9 304.396 566.93 304.396H557.289V329.674H559.829C562.397 329.674 564.319 329.502 565.61 329.172C566.916 328.828 567.963 328.241 568.781 327.367C569.57 326.564 570.159 325.604 570.546 324.501C570.919 323.397 571.234 321.764 571.493 319.614L572.439 319.657L572.267 342.141H571.321C571.062 339.977 570.689 338.243 570.201 336.925C569.714 335.606 569.025 334.489 568.15 333.572C567.303 332.669 566.213 332.01 564.85 331.594C563.502 331.178 561.78 330.964 559.7 330.964H557.289V340.579C557.289 344.405 557.39 347.199 557.591 348.948C557.777 350.696 558.165 352.157 558.724 353.332C559.685 355.338 561.149 356.815 563.114 357.76C565.08 358.692 567.677 359.165 570.89 359.165C574.247 359.165 577.059 358.735 579.326 357.889C581.593 357.029 583.429 355.711 584.864 353.92C585.868 352.716 586.686 351.34 587.317 349.807C587.934 348.274 588.522 346.239 589.053 343.717L590 343.76L589.484 360.454H539.298V359.508C540.905 359.423 542.211 359.193 543.201 358.835C544.205 358.477 545.094 357.889 545.884 357.073C546.759 356.17 547.361 355.023 547.677 353.648C548.007 352.258 548.164 350.137 548.164 347.271V316.29C548.164 313.424 548.007 311.303 547.677 309.913C547.361 308.523 546.759 307.391 545.884 306.488C545.123 305.671 544.248 305.084 543.244 304.725C542.254 304.367 540.934 304.138 539.298 304.052V303.106H584.491Z" fill="#E5BD4C"/>
<path d="M138.579 403.538V402.773H139.354C140.129 402.773 140.558 402.591 140.64 402.226C140.726 401.862 140.768 400.641 140.768 398.569V396.697H140.261C139.39 397.553 137.922 399.421 135.852 402.313C135.446 402.873 135.145 403.278 134.939 403.538C134.324 403.483 133.854 403.456 133.526 403.456C133.348 403.456 132.801 403.483 131.875 403.538V402.773C132.294 402.718 132.741 402.486 133.22 402.081C133.695 401.675 134.543 400.691 135.756 399.124C137.033 397.476 137.945 396.355 138.487 395.768C136.59 394.032 135.304 392.916 134.625 392.42C133.941 391.923 133.426 391.677 133.07 391.677H132.641V390.912H135.163C135.432 391.172 135.993 391.768 136.86 392.711C138.141 394.1 139.354 395.294 140.503 396.3H140.768V394.597C140.768 393.203 140.709 392.369 140.585 392.091C140.467 391.814 140.083 391.677 139.436 391.677H138.469V390.912C139.596 390.966 140.717 390.994 141.835 390.994C142.979 390.994 144.101 390.966 145.2 390.912V391.677H144.238C143.604 391.677 143.23 391.814 143.112 392.087C142.988 392.356 142.929 393.194 142.929 394.597V396.3H143.185C144.106 395.572 145.328 394.374 146.837 392.711C147.695 391.777 148.256 391.181 148.52 390.912H151.056V391.677H150.613C150.303 391.677 149.788 391.937 149.067 392.456C148.347 392.971 147.061 394.073 145.205 395.758C145.948 396.587 146.869 397.708 147.964 399.124C149.218 400.75 150.066 401.752 150.504 402.126C150.946 402.504 151.375 402.718 151.794 402.773V403.538C151.785 403.538 151.598 403.524 151.233 403.502C150.75 403.47 150.408 403.456 150.212 403.456C149.874 403.456 149.405 403.483 148.803 403.538C148.561 403.238 148.233 402.796 147.813 402.217C145.574 399.097 144.115 397.257 143.435 396.697H142.929V398.569C142.929 400.623 142.97 401.839 143.048 402.213C143.13 402.586 143.558 402.773 144.329 402.773H145.118V403.538L144.397 403.524C142.943 403.479 142.095 403.456 141.857 403.456C140.758 403.488 139.669 403.515 138.579 403.538ZM177.679 390.912V391.677H176.73C175.928 391.677 175.508 391.914 175.467 392.392C175.43 392.866 175.408 394.474 175.408 397.211L175.435 400.372C175.445 401.438 175.463 402.044 175.49 402.185C175.518 402.326 175.618 402.463 175.791 402.586C175.964 402.709 176.279 402.773 176.73 402.773H177.679V403.538C176.256 403.483 175.02 403.456 173.981 403.456C173.068 403.456 172.033 403.483 170.866 403.538V402.773H171.828C172.417 402.773 172.781 402.664 172.923 402.44C173.064 402.217 173.137 401.488 173.137 400.254V394.378C173.137 393.481 173.205 392.793 173.338 392.315C173.018 392.802 172.704 393.267 172.389 393.699C171.956 394.314 171.582 394.856 171.272 395.33L168.299 399.894C167.072 401.78 166.16 403.032 165.553 403.657C165.27 403.693 164.6 403.807 163.533 404.003C163.624 402.017 163.67 400.113 163.67 398.286C163.67 394.592 163.629 392.565 163.542 392.21C163.456 391.855 163.054 391.677 162.338 391.677H161.371V390.912C162.553 390.966 163.592 390.994 164.495 390.994C165.462 390.994 166.702 390.966 168.212 390.912V391.677H167.259C166.99 391.677 166.725 391.723 166.47 391.809C166.214 391.9 166.064 392.037 166.014 392.224C165.964 392.41 165.941 393.13 165.941 394.374V400.117C165.941 400.687 165.909 401.192 165.845 401.63C166.169 401.333 166.985 400.19 168.299 398.2L170.259 395.234C170.624 394.683 171.536 393.244 173.005 390.912C173.762 390.966 174.377 390.994 174.847 390.994C175.116 390.994 176.06 390.966 177.679 390.912ZM202.031 390.912V391.677H201.083C200.28 391.677 199.86 391.914 199.819 392.383C199.778 392.857 199.76 394.465 199.76 397.211L199.774 400.359C199.783 401.434 199.801 402.044 199.829 402.185C199.856 402.326 199.956 402.463 200.134 402.586C200.312 402.709 200.627 402.773 201.083 402.773H202.031V403.538C200.608 403.483 199.373 403.456 198.333 403.456C197.412 403.456 196.377 403.483 195.218 403.538V402.773H196.18C196.814 402.773 197.188 402.632 197.307 402.354C197.43 402.071 197.489 400.924 197.489 398.896V394.447L197.476 392.515L197.489 391.809C196.769 391.723 195.706 391.677 194.306 391.677C193.773 391.677 193.052 391.704 192.154 391.759C192.154 395.717 192.035 398.345 191.793 399.648C191.556 400.946 191.059 401.953 190.302 402.664C189.545 403.374 188.82 403.729 188.127 403.729C187.844 403.729 187.498 403.666 187.092 403.543L187.133 403.023C187.16 402.768 187.169 402.604 187.169 402.536C187.169 402.49 187.16 402.358 187.133 402.135C187.114 402.003 187.101 401.807 187.092 401.552L187.393 401.406C187.758 401.862 188.2 402.09 188.724 402.09C189.536 402.09 190.115 401.588 190.471 400.586C190.827 399.58 191.005 397.389 191.005 394.009C191.005 393.048 190.959 392.42 190.872 392.123C190.781 391.827 190.389 391.677 189.7 391.677H188.734V390.912C190.079 390.966 191.201 390.994 192.104 390.994H198.328C199.222 390.994 200.453 390.966 202.031 390.912ZM212.433 397.138C212.433 395.908 212.716 394.802 213.286 393.809C213.856 392.816 214.659 392.042 215.685 391.481C216.716 390.921 217.883 390.639 219.192 390.639C221.089 390.639 222.608 391.199 223.748 392.319C224.888 393.44 225.458 394.934 225.458 396.806C225.458 399.011 224.714 400.764 223.228 402.062C221.901 403.228 220.309 403.811 218.458 403.811C216.679 403.811 215.229 403.215 214.112 402.017C212.994 400.819 212.433 399.193 212.433 397.138ZM214.951 396.195C214.951 398.031 215.329 399.598 216.082 400.901C216.834 402.203 217.915 402.855 219.333 402.855C220.409 402.855 221.281 402.445 221.946 401.63C222.608 400.81 222.94 399.571 222.94 397.904C222.94 396.565 222.744 395.398 222.352 394.415C221.96 393.435 221.445 392.716 220.802 392.269C220.163 391.818 219.443 391.595 218.654 391.595C217.947 391.595 217.313 391.773 216.748 392.128C216.182 392.483 215.767 392.961 215.498 393.558C215.133 394.364 214.951 395.248 214.951 396.195ZM252.163 390.912V391.677H251.215C250.412 391.677 249.992 391.914 249.951 392.392C249.915 392.866 249.892 394.474 249.892 397.211L249.92 400.372C249.929 401.438 249.947 402.044 249.974 402.185C250.002 402.326 250.102 402.463 250.275 402.586C250.448 402.709 250.763 402.773 251.215 402.773H252.163V403.538C250.741 403.483 249.505 403.456 248.465 403.456C247.553 403.456 246.517 403.483 245.35 403.538V402.773H246.312C246.901 402.773 247.266 402.664 247.407 402.44C247.548 402.217 247.621 401.488 247.621 400.254V394.378C247.621 393.481 247.689 392.793 247.822 392.315C247.503 392.802 247.188 393.267 246.873 393.699C246.44 394.314 246.066 394.856 245.756 395.33L242.783 399.894C241.556 401.78 240.644 403.032 240.037 403.657C239.755 403.693 239.084 403.807 238.017 404.003C238.108 402.017 238.154 400.113 238.154 398.286C238.154 394.592 238.113 392.565 238.026 392.21C237.94 391.855 237.538 391.677 236.822 391.677H235.855V390.912C237.037 390.966 238.076 390.994 238.979 390.994C239.946 390.994 241.187 390.966 242.696 390.912V391.677H241.743C241.474 391.677 241.209 391.723 240.954 391.809C240.699 391.9 240.548 392.037 240.498 392.224C240.448 392.41 240.425 393.13 240.425 394.374V400.117C240.425 400.687 240.393 401.192 240.329 401.63C240.653 401.333 241.469 400.19 242.783 398.2L244.743 395.234C245.108 394.683 246.02 393.244 247.489 390.912C248.246 390.966 248.861 390.994 249.331 390.994C249.6 390.994 250.544 390.966 252.163 390.912ZM241.132 388.106L241.027 387.719C241.83 387.245 242.45 386.826 242.897 386.457C244.347 387.254 246.089 387.723 248.127 387.865L248.196 388.284L247.329 388.698L246.084 388.725C244.812 388.725 243.161 388.521 241.132 388.106ZM280.318 396.856V398.569C280.318 400.801 280.391 402.062 280.533 402.345C280.674 402.632 281.121 402.773 281.873 402.773H282.672V403.538C282.653 403.538 282.412 403.529 281.946 403.515C280.683 403.474 279.84 403.456 279.42 403.456C279.329 403.456 278.143 403.483 275.859 403.538V402.773H276.634C277.409 402.773 277.838 402.591 277.92 402.226C278.006 401.862 278.047 400.641 278.047 398.569V394.601C278.047 393.194 277.988 392.356 277.865 392.083C277.746 391.814 277.363 391.677 276.716 391.677H275.749V390.912C276.903 390.966 277.942 390.994 278.873 390.994C280.268 390.994 281.518 390.966 282.617 390.912V391.677H281.609C281.317 391.677 281.043 391.723 280.797 391.818C280.551 391.91 280.405 392.055 280.373 392.251C280.337 392.447 280.318 393.267 280.318 394.711V396.109L280.478 396.205C281.645 395.353 283 394.187 284.532 392.711L286.456 390.912H289.129V391.677L288.65 391.686C288.294 391.686 287.724 391.941 286.931 392.456C286.142 392.975 284.723 394.073 282.68 395.763C284.071 397.043 285.85 398.942 288.016 401.465C288.732 402.326 289.384 402.764 289.977 402.773V403.538C289.922 403.538 289.744 403.529 289.443 403.515C288.805 403.474 288.426 403.456 288.299 403.456C288.089 403.456 287.555 403.483 286.703 403.538C284.299 400.509 282.225 398.282 280.478 396.856H280.318ZM300.051 397.138C300.051 395.908 300.334 394.802 300.904 393.809C301.474 392.816 302.276 392.042 303.302 391.481C304.333 390.921 305.501 390.639 306.809 390.639C308.707 390.639 310.225 391.199 311.365 392.319C312.505 393.44 313.075 394.934 313.075 396.806C313.075 399.011 312.332 400.764 310.845 402.062C309.518 403.228 307.927 403.811 306.075 403.811C304.297 403.811 302.846 403.215 301.729 402.017C300.612 400.819 300.051 399.193 300.051 397.138ZM302.568 396.195C302.568 398.031 302.947 399.598 303.699 400.901C304.452 402.203 305.533 402.855 306.951 402.855C308.027 402.855 308.898 402.445 309.564 401.63C310.225 400.81 310.558 399.571 310.558 397.904C310.558 396.565 310.362 395.398 309.97 394.415C309.578 393.435 309.062 392.716 308.419 392.269C307.781 391.818 307.06 391.595 306.271 391.595C305.565 391.595 304.931 391.773 304.365 392.128C303.8 392.483 303.385 392.961 303.116 393.558C302.751 394.364 302.568 395.248 302.568 396.195ZM341.532 390.912V391.677H340.583C339.781 391.677 339.361 391.914 339.32 392.383C339.279 392.857 339.261 394.51 339.261 397.343L339.275 399.694C339.284 401.256 339.307 402.112 339.348 402.258C339.389 402.404 339.521 402.527 339.749 402.627C339.977 402.723 340.255 402.773 340.584 402.773H341.532V403.538C340.114 403.483 338.878 403.456 337.824 403.456C336.913 403.456 335.877 403.483 334.719 403.538V402.773H335.663C336.265 402.773 336.634 402.65 336.776 402.399C336.917 402.149 336.99 401.074 336.99 399.165V393.089L334.714 397.854C333.82 399.712 332.986 401.634 332.215 403.62H331.34C331.002 402.677 330.592 401.671 330.113 400.605L329.274 398.696L326.784 392.779V399.02L326.798 401.037C326.807 401.721 326.829 402.126 326.866 402.245C326.898 402.367 327.012 402.481 327.199 402.6C327.386 402.713 327.678 402.773 328.079 402.773H329.028V403.538C329 403.538 328.749 403.529 328.28 403.52C327.204 403.474 326.451 403.456 326.023 403.456C325.694 403.456 324.846 403.483 323.473 403.538V402.773H324.431C325.11 402.773 325.503 402.609 325.598 402.281C325.694 401.948 325.744 400.336 325.744 397.439C325.744 394.301 325.699 392.556 325.612 392.205C325.521 391.855 325.129 391.677 324.431 391.677H323.473V390.912L324.194 390.935C325.124 390.976 325.612 390.994 325.644 390.994C325.653 390.994 326.023 390.98 326.752 390.948C327.491 390.907 327.86 390.885 327.869 390.885C327.897 390.885 328.034 390.894 328.284 390.912C329.064 392.925 329.794 394.706 330.469 396.264L332.439 400.805L334.714 395.904C335.594 394 336.137 392.78 336.352 392.246L336.899 390.912C337.496 390.966 338.03 390.994 338.495 390.994C338.855 390.994 339.867 390.966 341.532 390.912ZM360.439 402.773H361.406C362.113 402.773 362.514 402.595 362.605 402.245C362.692 401.894 362.738 400.714 362.738 398.701V394.966C362.738 394.866 362.728 394.633 362.71 394.269C362.665 393.531 362.646 392.743 362.646 391.91C362.058 391.846 361.287 391.814 360.338 391.814H358.245C357.47 391.814 356.736 391.846 356.033 391.91C355.997 392.957 355.979 393.977 355.979 394.966V398.701C355.979 400.555 355.988 401.625 356.011 401.916C356.033 402.213 356.139 402.427 356.325 402.568C356.512 402.705 356.836 402.773 357.288 402.773H358.25V403.538C356.827 403.483 355.591 403.456 354.542 403.456C353.635 403.456 352.6 403.483 351.437 403.538V402.773H352.394C353.074 402.773 353.466 402.609 353.562 402.281C353.657 401.948 353.708 400.336 353.708 397.439C353.708 394.301 353.662 392.556 353.576 392.205C353.484 391.855 353.092 391.677 352.394 391.677H351.437V390.912C352.549 390.966 353.813 390.994 355.226 390.994H363.731C364.575 390.994 365.756 390.966 367.279 390.912V391.677H366.331C365.519 391.677 365.099 391.914 365.063 392.392C365.027 392.866 365.008 394.519 365.008 397.343L365.022 399.798C365.031 401.32 365.054 402.144 365.095 402.281C365.136 402.413 365.268 402.527 365.496 402.627C365.724 402.723 366.003 402.773 366.331 402.773H367.279V403.538C365.847 403.483 364.612 403.456 363.563 403.456C362.641 403.456 361.602 403.483 360.439 403.538L360.439 402.773ZM391.632 390.912V391.677H390.683C389.881 391.677 389.461 391.914 389.42 392.383C389.379 392.857 389.361 394.465 389.361 397.211L389.375 400.359C389.384 401.434 389.402 402.044 389.429 402.185C389.456 402.326 389.557 402.463 389.735 402.586C389.913 402.709 390.227 402.773 390.683 402.773H391.632V403.538C390.209 403.483 388.973 403.456 387.934 403.456C387.012 403.456 385.977 403.483 384.819 403.538V402.773H385.781C386.415 402.773 386.789 402.632 386.907 402.354C387.031 402.071 387.09 400.924 387.09 398.896V394.447L387.076 392.515L387.09 391.809C386.369 391.723 385.307 391.677 383.907 391.677C383.373 391.677 382.653 391.704 381.754 391.759C381.754 395.717 381.636 398.345 381.394 399.648C381.157 400.946 380.66 401.953 379.903 402.664C379.146 403.374 378.421 403.729 377.727 403.729C377.445 403.729 377.098 403.666 376.692 403.543L376.733 403.023C376.76 402.768 376.77 402.604 376.77 402.536C376.77 402.49 376.76 402.358 376.733 402.135C376.715 402.003 376.701 401.807 376.692 401.552L376.993 401.406C377.358 401.862 377.8 402.09 378.325 402.09C379.137 402.09 379.716 401.588 380.071 400.586C380.427 399.58 380.605 397.389 380.605 394.009C380.605 393.048 380.56 392.42 380.473 392.123C380.382 391.827 379.989 391.677 379.301 391.677H378.334V390.912C379.679 390.966 380.801 390.994 381.704 390.994H387.929C388.823 390.994 390.054 390.966 391.632 390.912ZM404.387 397.088C404.433 398.842 404.88 400.172 405.737 401.083C406.59 401.99 407.712 402.445 409.098 402.445C409.718 402.445 410.338 402.34 410.95 402.135C411.565 401.93 412.176 401.62 412.778 401.206L413.006 401.406L412.577 402.527C411.839 402.955 411.077 403.274 410.297 403.488C409.513 403.702 408.706 403.811 407.881 403.811C406.07 403.811 404.615 403.238 403.507 402.094C402.399 400.951 401.843 399.402 401.843 397.444C401.843 395.95 402.153 394.656 402.777 393.563C403.188 392.839 403.945 392.174 405.048 391.559C406.148 390.944 407.224 390.639 408.263 390.639C409.837 390.639 411.086 391.103 412.007 392.028C412.929 392.957 413.389 394.251 413.389 395.918L413.362 396.706C412.774 396.847 412.217 396.938 411.684 396.984C410.731 397.052 409.408 397.088 407.721 397.088H404.387ZM404.415 396.104C405.796 396.159 407.319 396.186 408.989 396.186C409.654 396.186 410.302 396.155 410.927 396.091V395.344C410.927 394.56 410.771 393.818 410.457 393.116C410.261 392.679 409.919 392.319 409.431 392.028C408.938 391.741 408.373 391.595 407.73 391.595C406.731 391.595 405.933 391.959 405.336 392.693C404.738 393.422 404.433 394.56 404.415 396.104ZM428.197 396.856V398.569C428.197 400.801 428.27 402.062 428.411 402.345C428.553 402.632 428.999 402.773 429.752 402.773H430.55V403.538C430.532 403.538 430.29 403.529 429.825 403.515C428.562 403.474 427.718 403.456 427.299 403.456C427.207 403.456 426.022 403.483 423.737 403.538V402.773H424.512C425.288 402.773 425.716 402.591 425.798 402.226C425.885 401.862 425.926 400.641 425.926 398.569V394.601C425.926 393.194 425.867 392.356 425.743 392.083C425.625 391.814 425.242 391.677 424.594 391.677H423.627V390.912C424.781 390.966 425.821 390.994 426.751 390.994C428.147 390.994 429.396 390.966 430.495 390.912V391.677H429.488C429.196 391.677 428.922 391.723 428.676 391.818C428.43 391.91 428.284 392.055 428.252 392.251C428.215 392.447 428.197 393.267 428.197 394.711V396.109L428.356 396.205C429.524 395.353 430.878 394.187 432.41 392.711L434.335 390.912H437.007V391.677L436.528 391.686C436.173 391.686 435.603 391.941 434.809 392.456C434.02 392.975 432.602 394.073 430.559 395.763C431.95 397.043 433.728 398.942 435.895 401.465C436.61 402.326 437.263 402.764 437.855 402.773V403.538C437.801 403.538 437.623 403.529 437.322 403.515C436.683 403.474 436.305 403.456 436.177 403.456C435.968 403.456 435.434 403.483 434.581 403.538C432.178 400.509 430.103 398.282 428.356 396.856H428.197ZM457.803 401.652L458.163 401.971L457.616 402.828C457.009 403.155 456.384 403.402 455.741 403.565C455.103 403.729 454.446 403.811 453.776 403.811C452.467 403.811 451.354 403.561 450.442 403.064C449.53 402.568 448.823 401.844 448.322 400.901C447.825 399.958 447.574 398.837 447.574 397.539C447.574 396.391 447.765 395.394 448.149 394.542C448.531 393.69 449.07 393.025 449.758 392.547C450.451 392.069 451.313 391.595 452.349 391.13C453.078 390.803 453.895 390.639 454.793 390.639C455.481 390.639 456.07 390.693 456.567 390.807C457.059 390.917 457.593 391.117 458.163 391.399C457.944 392.574 457.825 393.754 457.807 394.929H456.959V394.26C456.959 393.69 456.877 393.29 456.713 393.053C456.548 392.816 456.17 392.584 455.582 392.351C454.994 392.119 454.35 392.005 453.657 392.005C452.454 392.005 451.528 392.374 450.875 393.107C450.223 393.841 449.9 394.938 449.9 396.396C449.9 398.277 450.383 399.78 451.345 400.91C452.207 401.935 453.324 402.445 454.688 402.445C455.222 402.445 455.746 402.377 456.266 402.245C456.781 402.108 457.292 401.912 457.803 401.652Z" fill="#E5BD4C"/>
</svg>
